<svg id="icon" viewBox="0 0 351 71" fill="none" xmlns="http://www.w3.org/2000/svg">
<path d="M12.4 63.3C12.4 63.3 18.2 63.8 23.6 60.8C32.9 55.6 39.3 55.6 57 67C71.3 76.2 97.3 54.5 102.4 47.6C110.7 36.6 123.2 21.2 143.9 22.6C164.7 24 177.8 41.6999 165.8 57.6999C153.7 73.6999 125.7 63.3 135.8 49.6" stroke="url(#paint0_linear_2_1218)" stroke-width="1.6827" stroke-miterlimit="10" stroke-linecap="round"/>
<path d="M1.61526 60.2593C1.66738 60.2222 1.72516 60.1827 1.78858 60.1417C2.16155 59.9007 2.72845 59.6061 3.4881 59.4089C4.99479 59.0179 7.31747 58.9953 10.4669 60.6423C13.7994 62.4121 17.3972 62.4027 20.1284 61.9688C20.7462 61.8706 21.3221 61.7504 21.8437 61.623C15.883 65.581 11.0017 65.3997 7.51832 64.1541C5.52604 63.4418 3.96445 62.3714 2.89979 61.4766C2.36815 61.0297 1.9626 60.6285 1.69153 60.341C1.66479 60.3126 1.63936 60.2853 1.61526 60.2593Z" fill="url(#paint1_linear_2_1218)" stroke="url(#paint2_linear_2_1218)"/>
<path d="M29.9016 55.9022L29.9019 55.9025C30.4459 56.6183 31.2033 57.146 32.0474 57.5447C30.632 57.5908 29.2327 57.7823 28.1121 58.2366C27.3557 58.5432 26.7638 58.4195 26.2178 58.0407C25.6341 57.6358 25.1009 56.9343 24.5613 56.0722C24.3155 55.6795 24.0765 55.2672 23.8337 54.8486C23.8133 54.8134 23.7929 54.7782 23.7725 54.743C23.5107 54.2917 23.2438 53.8346 22.9684 53.4084C22.6509 52.9169 22.3055 52.4385 21.918 52.0434C22.4125 51.9689 23.0735 51.9269 23.8388 52.0212C25.5314 52.2299 27.7842 53.111 29.9016 55.9022Z" fill="url(#paint3_linear_2_1218)" stroke="url(#paint4_linear_2_1218)"/>
<path d="M47.1535 61.7351L53.468 65.3822C51.5968 65.009 49.2888 64.7995 46.563 65.0014C42.5049 65.302 40.5628 65.2418 39.2952 64.8929C38.323 64.6253 37.7492 64.1966 36.8543 63.5278C36.739 63.4417 36.6185 63.3516 36.4911 63.2574C36.6173 63.1506 36.7693 63.0271 36.9453 62.8929C37.5274 62.4493 38.365 61.8942 39.3883 61.4454C41.4281 60.5507 44.1802 60.0848 47.1535 61.7351Z" fill="url(#paint5_linear_2_1218)" stroke="url(#paint6_linear_2_1218)"/>
<path d="M47.4 61.3C47.4 61.3 37.7 46.8 50.3 39.5C53.1 37.9 59.4 40.6 59.1 43.1" stroke="url(#paint7_linear_2_1218)" stroke-width="1.6827" stroke-miterlimit="10"/>
<path d="M60.1942 41.4921L60.1942 41.4921L60.1979 41.4971C60.9188 42.4725 60.9716 43.9395 60.5952 45.2216C60.4098 45.8533 60.1309 46.398 59.8207 46.7738C59.525 47.132 59.2537 47.2776 59.0488 47.2975C59.046 47.2968 59.0432 47.2959 59.0402 47.295C58.9966 47.2819 58.9265 47.2576 58.8383 47.2157C58.6627 47.1321 58.4131 46.9776 58.1546 46.698C57.6444 46.1461 57.0488 45.0499 57 42.8941C56.9984 41.8418 56.5593 41.0105 55.8691 40.404C55.1909 39.8081 54.2848 39.4396 53.3369 39.2474C52.553 39.0884 51.7074 39.0438 50.8878 39.106C51.3681 38.8627 51.9005 38.6374 52.4691 38.4662C53.6273 38.1176 54.9179 37.9985 56.2253 38.3899C57.5278 38.7798 58.8976 39.6912 60.1942 41.4921Z" fill="url(#paint8_linear_2_1218)" stroke="url(#paint9_linear_2_1218)"/>
<path d="M61.7853 55.8661C61.7052 55.8463 61.6209 55.8265 61.5328 55.807C60.8627 55.659 59.9496 55.5266 59.0274 55.6147C58.1043 55.703 57.1257 56.0178 56.3951 56.8093C55.6608 57.6047 55.2476 58.8048 55.3002 60.5154C55.4105 64.0997 58.4431 66.4618 62.4186 67.5449C64.9485 68.2341 67.936 68.4346 70.9992 68.1036C70.2712 68.2969 69.4804 68.4673 68.6387 68.593C64.3262 69.2368 58.6825 68.7096 53.2837 64.0706C53.2777 64.0609 53.271 64.05 53.2637 64.038C53.2254 63.9751 53.1693 63.8811 53.1 63.7595C52.9613 63.5163 52.7703 63.1635 52.5639 62.7302C52.1495 61.8604 51.6804 60.6811 51.4412 59.4193C51.2015 58.1547 51.2 56.8463 51.6751 55.6882C52.143 54.5477 53.0967 53.4946 54.8861 52.7641C56.4585 52.1451 57.6586 52.1106 58.5727 52.3577C59.488 52.605 60.1723 53.1498 60.6853 53.7882C61.2011 54.4301 61.534 55.1556 61.7383 55.73C61.7548 55.7765 61.7705 55.8219 61.7853 55.8661Z" fill="url(#paint10_linear_2_1218)" stroke="url(#paint11_linear_2_1218)"/>
<path d="M76.3173 57.694C76.8381 57.594 77.5878 57.3808 78.6773 56.9675L78.6872 56.9637L78.697 56.9596C79.1883 56.749 79.7421 56.4905 80.3434 56.2097C81.5237 55.6588 82.8873 55.0222 84.3226 54.4942C86.4893 53.6973 88.6312 53.2276 90.2661 53.6817L90.5854 52.7365L90.5857 52.7357L90.5857 52.7357L90.5856 52.7357L90.5853 52.7356L90.5835 52.7348L90.5756 52.7317L90.5433 52.7186C90.5147 52.7069 90.4721 52.6894 90.4171 52.6666C90.307 52.6208 90.1475 52.5536 89.9511 52.4681C89.558 52.2969 89.0188 52.0535 88.4342 51.7643C87.5163 51.3102 86.5301 50.7639 85.8126 50.2235C86.1654 50.064 86.6363 49.859 87.1857 49.6392C88.4223 49.1446 90.0381 48.5828 91.5921 48.2914C92.2794 48.1626 93.1024 48.1535 94.038 48.1433C96.3104 48.1184 99.2475 48.0862 102.521 46.3121C101.286 47.701 99.7476 49.3905 98.0895 51.116C96.0949 53.1916 93.933 55.3126 91.9199 57.0237C89.9022 58.7387 88.0934 59.9894 86.7766 60.4145C86.7636 60.4169 86.7456 60.4202 86.7229 60.4241C86.6676 60.4338 86.5843 60.4477 86.476 60.4637C86.2594 60.4958 85.9435 60.5363 85.5522 60.5689C84.7683 60.6342 83.6887 60.6673 82.5032 60.5403C80.3878 60.3136 78.0025 59.5863 76.3173 57.694Z" fill="url(#paint12_linear_2_1218)" stroke="url(#paint13_linear_2_1218)"/>
<path d="M108 47.9173C108 47.9174 108 47.9174 107.996 47.9173L107.011 47.797C106.927 48.1957 106.864 48.7375 106.794 49.3403C106.775 49.4985 106.756 49.661 106.736 49.8261C106.639 50.6385 106.513 51.5589 106.3 52.5023C105.871 54.3991 105.104 56.3224 103.576 57.6187L103.576 57.6187L103.572 57.6226C100.575 60.2266 98.1461 61.2595 96.497 61.651C96.4127 61.671 96.3304 61.6894 96.25 61.7062C96.8795 61.0334 97.4197 59.9194 97.6946 58.0737L97.6948 58.0722C98.0358 55.7335 98.7671 53.8075 99.413 52.467C99.7357 51.7972 100.036 51.2752 100.255 50.9227C100.364 50.7465 100.452 50.6129 100.513 50.5244C100.543 50.4802 100.566 50.4474 100.581 50.4261L100.598 50.4031L100.601 50.3985C106.609 42.4092 112.273 36.7927 117.204 32.8505C115.251 35.0479 114.278 37.9228 113.687 40.5658C113.392 41.886 113.186 43.1774 113.005 44.3113C112.939 44.7267 112.876 45.1209 112.813 45.4877C112.695 46.1802 112.579 46.7704 112.443 47.2408C112.304 47.7233 112.162 48.0153 112.029 48.1653C110.967 49.333 110.436 50.5554 110.169 51.4876C110.106 51.7077 110.058 51.9118 110.021 52.0957C109.064 51.1486 108.562 50.1913 108.297 49.4348C108.135 48.9725 108.061 48.5826 108.027 48.313C108.011 48.1782 108.004 48.0738 108.001 48.0058C108 47.9718 108 47.9469 108 47.932L108 47.9173ZM108 47.9173L108 47.9169L108 47.9162L108 47.9155C108 47.9154 108 47.916 108 47.9172L108 47.9173ZM119.833 30.8517C120.97 30.032 122.059 29.3047 123.094 28.6597C120.73 31.0882 118.59 34.6251 117.216 39.8734L117.216 39.8755C116.304 43.4229 116.215 46.1051 116.655 48.1683C117.097 50.2432 118.068 51.6637 119.218 52.6861C120.356 53.6982 121.656 54.3086 122.728 54.7863C122.816 54.8258 122.903 54.8641 122.987 54.9015C123.424 55.0952 123.806 55.2647 124.132 55.438C124.525 55.6474 124.77 55.8296 124.902 56.003C125.637 56.9671 125.939 58.0047 126.055 58.8092C126.093 59.0685 126.111 59.3019 126.118 59.4983C121.616 57.8299 118.997 55.3459 117.576 52.572C116.082 49.6556 115.879 46.3556 116.296 43.2158C116.712 40.0774 117.745 37.1364 118.678 34.973C119.144 33.8931 119.583 33.0112 119.905 32.4005C120.067 32.0952 120.198 31.8579 120.289 31.6978C120.335 31.6177 120.37 31.557 120.394 31.5167L120.42 31.4717L120.426 31.461L120.428 31.4587L120.428 31.4583L120.428 31.4583L120.428 31.4581L119.833 30.8517Z" fill="url(#paint14_linear_2_1218)" stroke="url(#paint15_linear_2_1218)"/>
<path d="M130.119 24.0046C130.115 24.0048 130.11 24.0051 130.104 24.0054C130.066 24.0073 130.007 24.0095 129.93 24.0096C129.776 24.0097 129.549 24.0017 129.27 23.9677C128.711 23.8997 127.952 23.7287 127.154 23.3179C125.716 22.5782 124.077 21.0236 123.29 17.6947C123.534 17.8045 123.815 17.9242 124.121 18.0416C125.105 18.4202 126.422 18.8089 127.545 18.6979C128.331 18.6333 129.13 18.8332 129.965 19.2025C130.805 19.5739 131.646 20.1003 132.518 20.6586C132.584 20.7011 132.651 20.7439 132.718 20.7868C133.516 21.2984 134.34 21.8269 135.168 22.2346C135.39 22.3437 135.615 22.4456 135.842 22.537L130.119 24.0046Z" fill="url(#paint16_linear_2_1218)" stroke="url(#paint17_linear_2_1218)"/>
<path d="M147.642 23.8137C146.589 24.3635 145.635 25.2136 144.695 26.1601C144.248 26.6107 143.801 27.0855 143.343 27.5716C141.941 29.0616 140.438 30.658 138.515 31.9889L138.515 31.9888L138.51 31.9926C135.989 33.7864 133.994 34.1721 132.663 34.1376C132.279 34.1277 131.947 34.0828 131.669 34.0245C132.038 33.7861 132.389 33.4814 132.738 33.053C133.39 32.2517 134.013 31.0402 134.767 29.0795C135.463 27.2701 137.112 25.7413 138.652 24.6448C139.414 24.1026 140.131 23.6784 140.657 23.3901C140.92 23.246 141.135 23.1363 141.283 23.063C141.32 23.0445 141.353 23.0283 141.382 23.0145L147.642 23.8137Z" fill="url(#paint18_linear_2_1218)" stroke="url(#paint19_linear_2_1218)"/>
<path d="M158.984 49.4742C158.801 49.5051 158.636 49.5286 158.493 49.5463C158.988 46.4603 159.317 45.6668 159.802 45.0095C159.93 44.8368 160.076 44.6656 160.244 44.4685C160.81 43.8031 161.629 42.8425 162.843 40.5326L162.843 40.5326L162.846 40.5266C164.455 37.3614 163.495 33.8476 162.225 31.22C161.849 30.4407 161.44 29.7278 161.05 29.1096L162.899 30.3996C164.875 32.0099 168.054 37.0095 166.416 43.2734C165.617 46.3283 163.511 47.9042 161.568 48.727C160.593 49.1394 159.667 49.3585 158.984 49.4742Z" fill="url(#paint20_linear_2_1218)" stroke="url(#paint21_linear_2_1218)"/>
<path d="M140.305 48.7396C136.866 50.1985 135.203 52.5326 134.411 54.5142C134.117 55.2494 133.943 55.9333 133.841 56.5029C132.91 54.3358 133.55 52.1313 134.768 50.2742C135.499 49.1603 136.424 48.1979 137.298 47.4921C138.19 46.7723 138.963 46.3708 139.386 46.2925C140.786 46.0603 141.609 46.5601 141.808 46.9955C141.898 47.1916 141.901 47.4386 141.708 47.7343C141.504 48.046 141.076 48.4124 140.305 48.7396Z" fill="url(#paint22_linear_2_1218)" stroke="url(#paint23_linear_2_1218)"/>
<path d="M142.372 55.2336L142.372 55.2336L142.374 55.2322C143.515 53.9485 144.676 53.3057 145.752 53.0662C146.831 52.8262 147.862 52.9827 148.755 53.3605C149.652 53.74 150.397 54.3382 150.89 54.9579C151.123 55.2519 151.285 55.531 151.387 55.7798C151.368 55.7726 151.349 55.7654 151.33 55.7582C150.79 55.5564 150.041 55.3362 149.242 55.2884C148.443 55.2406 147.555 55.3636 146.782 55.8919C146.001 56.4258 145.406 57.326 145.111 58.6946L145.111 58.6946L145.11 58.6998C144.84 60.0223 145.414 61.1859 146.367 62.1065C147.314 63.0219 148.679 63.7467 150.151 64.2483C151.33 64.6496 152.601 64.9161 153.825 65.0192C151.209 65.6722 147.63 65.9705 143.67 64.5657C143.634 64.5298 143.585 64.48 143.525 64.4175C143.385 64.2711 143.188 64.0551 142.964 63.7806C142.514 63.2296 141.962 62.4531 141.542 61.5407C141.121 60.6277 140.84 59.5987 140.904 58.5331C140.967 57.4773 141.37 56.3522 142.372 55.2336Z" fill="url(#paint24_linear_2_1218)" stroke="url(#paint25_linear_2_1218)"/>
<path d="M338.7 63.3C338.7 63.3 333 63.8 327.5 60.8C318.2 55.6 311.8 55.6 294.1 67C279.8 76.2 253.8 54.5 248.7 47.6C240.4 36.6 227.9 21.2 207.2 22.6C186.4 24 173.3 41.6999 185.3 57.6999C197.4 73.6999 225.4 63.3 215.3 49.6" stroke="url(#paint26_linear_2_1218)" stroke-width="1.6827" stroke-miterlimit="10" stroke-linecap="round"/>
<path d="M349.211 60.1417C349.276 60.1833 349.334 60.2232 349.387 60.2607C349.363 60.2869 349.338 60.3142 349.311 60.3426C349.043 60.63 348.641 61.0311 348.113 61.4777C347.056 62.3721 345.504 63.4421 343.519 64.1543C340.052 65.3976 335.181 65.5808 329.197 61.6397C329.697 61.7609 330.246 61.8749 330.834 61.9687C333.555 62.403 337.151 62.4114 340.532 60.643C343.682 58.9953 346.005 59.0178 347.512 59.4089C348.272 59.6061 348.838 59.9007 349.211 60.1417Z" fill="url(#paint27_linear_2_1218)" stroke="url(#paint28_linear_2_1218)"/>
<path d="M322.888 58.2366C321.767 57.7823 320.368 57.5908 318.953 57.5447C319.797 57.146 320.554 56.6183 321.098 55.9025L321.098 55.9022C323.216 53.111 325.469 52.2299 327.161 52.0212C327.938 51.9255 328.607 51.9702 329.104 52.0467C328.726 52.4419 328.387 52.9199 328.073 53.4101C327.8 53.8353 327.534 54.2917 327.272 54.7423L327.257 54.7681C326.998 55.2133 326.742 55.653 326.478 56.07C325.932 56.931 325.39 57.6334 324.798 58.0392C324.243 58.42 323.644 58.5431 322.888 58.2366Z" fill="url(#paint29_linear_2_1218)" stroke="url(#paint30_linear_2_1218)"/>
<path d="M304.437 65.0014C301.711 64.7995 299.403 65.009 297.532 65.3822L303.846 61.7351C306.82 60.0848 309.572 60.5507 311.612 61.4454C312.635 61.8942 313.473 62.4493 314.055 62.8929C314.231 63.0271 314.383 63.1506 314.509 63.2574C314.382 63.3516 314.261 63.4416 314.146 63.5277C313.251 64.1965 312.677 64.6253 311.705 64.8929C310.437 65.2418 308.495 65.302 304.437 65.0014Z" fill="url(#paint31_linear_2_1218)" stroke="url(#paint32_linear_2_1218)"/>
<path d="M303.7 61.3C303.7 61.3 313.5 46.8 300.8 39.5C298 37.9 291.7 40.6 292.1 43.1" stroke="url(#paint33_linear_2_1218)" stroke-width="1.6827" stroke-miterlimit="10"/>
<path d="M298.531 38.4662C299.098 38.637 299.629 38.8617 300.109 39.1044C299.303 39.0446 298.472 39.0898 297.7 39.2475C295.839 39.6276 294.06 40.7351 294 42.8861H294L294 42.8888C293.952 45.0482 293.356 46.1457 292.845 46.698C292.587 46.9776 292.337 47.1321 292.162 47.2157C292.073 47.2576 292.003 47.2819 291.96 47.295C291.957 47.2959 291.954 47.2968 291.951 47.2975C291.746 47.2776 291.475 47.132 291.179 46.7738C290.869 46.398 290.59 45.8533 290.405 45.2216C290.028 43.9395 290.081 42.4725 290.802 41.4971L290.802 41.4971L290.806 41.4921C292.102 39.6912 293.472 38.7798 294.775 38.3899C296.082 37.9985 297.373 38.1176 298.531 38.4662Z" fill="url(#paint34_linear_2_1218)" stroke="url(#paint35_linear_2_1218)"/>
<path d="M280.101 68.1036C283.164 68.4346 286.152 68.2341 288.681 67.5449C292.657 66.4618 295.689 64.0997 295.8 60.5154C295.852 58.8048 295.439 57.6047 294.705 56.8093C293.974 56.0178 292.996 55.703 292.073 55.6147C291.15 55.5266 290.237 55.659 289.567 55.807C289.479 55.8265 289.395 55.8463 289.315 55.8661C289.33 55.8219 289.345 55.7765 289.362 55.73C289.566 55.1556 289.899 54.4301 290.415 53.7882C290.928 53.1498 291.612 52.605 292.527 52.3577C293.441 52.1106 294.641 52.1451 296.214 52.7641C298.003 53.4946 298.957 54.5477 299.425 55.6882C299.9 56.8463 299.898 58.1547 299.659 59.4193C299.42 60.6811 298.95 61.8604 298.536 62.7302C298.33 63.1635 298.139 63.5163 298 63.7595C297.931 63.8811 297.875 63.9751 297.836 64.038C297.829 64.05 297.822 64.0609 297.816 64.0706C292.417 68.7096 286.774 69.2368 282.461 68.593C281.62 68.4673 280.829 68.2969 280.101 68.1036Z" fill="url(#paint36_linear_2_1218)" stroke="url(#paint37_linear_2_1218)"/>
<path d="M248.579 46.3121C251.852 48.0862 254.79 48.1184 257.062 48.1433C257.998 48.1535 258.821 48.1626 259.508 48.2914C261.062 48.5828 262.678 49.1446 263.914 49.6392C264.464 49.859 264.935 50.064 265.287 50.2235C264.57 50.7639 263.584 51.3102 262.666 51.7643C262.081 52.0535 261.542 52.2969 261.149 52.4681C260.952 52.5536 260.793 52.6208 260.683 52.6666C260.628 52.6894 260.585 52.7069 260.557 52.7186L260.524 52.7317L260.517 52.7348L260.515 52.7356L260.514 52.7357L260.514 52.7357L260.514 52.7357L260.515 52.7365L260.834 53.6817C262.469 53.2276 264.611 53.6973 266.777 54.4942C268.213 55.0222 269.576 55.6588 270.757 56.2097C271.358 56.4905 271.912 56.749 272.403 56.9596L272.413 56.9637L272.423 56.9675C273.512 57.3808 274.262 57.594 274.783 57.694C273.098 59.5863 270.712 60.3136 268.597 60.5403C267.411 60.6673 266.332 60.6342 265.548 60.5689C265.156 60.5363 264.841 60.4958 264.624 60.4637C264.516 60.4477 264.432 60.4338 264.377 60.4241C264.354 60.4202 264.336 60.4169 264.323 60.4145C263.007 59.9894 261.198 58.7387 259.18 57.0237C257.167 55.3126 255.005 53.1916 253.011 51.116C251.352 49.3905 249.814 47.701 248.579 46.3121Z" fill="url(#paint38_linear_2_1218)" stroke="url(#paint39_linear_2_1218)"/>
<path d="M253.405 58.0722L253.405 58.0737C253.68 59.9194 254.221 61.0334 254.85 61.7062C254.77 61.6894 254.687 61.671 254.603 61.651C252.954 61.2595 250.525 60.2266 247.528 57.6226L247.528 57.6225L247.524 57.6187C245.996 56.3224 245.229 54.3991 244.8 52.5023C244.587 51.5589 244.461 50.6385 244.364 49.8261C244.344 49.661 244.325 49.4986 244.306 49.3404C244.236 48.7375 244.173 48.1957 244.089 47.797L243.104 47.9173C243.1 47.9174 243.1 47.9174 243.1 47.9173L243.1 47.932C243.1 47.9469 243.1 47.9718 243.099 48.0058C243.096 48.0738 243.089 48.1782 243.073 48.313C243.039 48.5826 242.965 48.9725 242.803 49.4348C242.538 50.1913 242.036 51.1486 241.079 52.0957C241.042 51.9118 240.994 51.7077 240.931 51.4876C240.664 50.5554 240.133 49.333 239.071 48.1653C238.938 48.0153 238.796 47.7233 238.657 47.2408C238.521 46.7704 238.405 46.1802 238.287 45.4877C238.224 45.1209 238.161 44.7267 238.095 44.3113C237.914 43.1774 237.708 41.886 237.413 40.5658C236.821 37.9228 235.849 35.0479 233.896 32.8505C238.827 36.7927 244.491 42.4092 250.499 50.3986C250.499 50.3992 250.5 50.3998 250.5 50.4005L250.502 50.4031L250.519 50.4261C250.534 50.4474 250.557 50.4802 250.587 50.5244C250.648 50.6129 250.736 50.7465 250.845 50.9227C251.064 51.2752 251.364 51.7972 251.687 52.467C252.333 53.8075 253.064 55.7335 253.405 58.0722ZM228.006 28.6597C229.041 29.3047 230.13 30.032 231.267 30.8517L230.672 31.4581L230.672 31.4583L230.672 31.4583L230.672 31.4587L230.674 31.461L230.68 31.4717L230.706 31.5167C230.73 31.557 230.765 31.6177 230.811 31.6978C230.902 31.8579 231.033 32.0952 231.194 32.4005C231.517 33.0112 231.956 33.8931 232.422 34.973C233.355 37.1364 234.388 40.0774 234.804 43.2158C235.221 46.3556 235.018 49.6556 233.524 52.572C232.103 55.3459 229.484 57.8299 224.982 59.4983C224.989 59.3019 225.007 59.0685 225.045 58.8092C225.161 58.0047 225.463 56.9671 226.198 56.003C226.33 55.8296 226.575 55.6474 226.968 55.438C227.294 55.2648 227.676 55.0952 228.113 54.9015C228.197 54.8641 228.284 54.8258 228.372 54.7863C229.444 54.3086 230.744 53.6982 231.882 52.6861C233.032 51.6637 234.003 50.2432 234.445 48.1683C234.885 46.1051 234.796 43.4229 233.884 39.8755L233.884 39.8734C232.51 34.6251 230.37 31.0882 228.006 28.6597Z" fill="url(#paint40_linear_2_1218)" stroke="url(#paint41_linear_2_1218)"/>
<path d="M215.258 22.537C215.485 22.4456 215.71 22.3437 215.932 22.2346C216.76 21.8269 217.584 21.2983 218.382 20.7868C218.449 20.7439 218.516 20.7011 218.582 20.6586C219.454 20.1003 220.295 19.5739 221.135 19.2025C221.97 18.8332 222.769 18.6333 223.555 18.6979C224.678 18.8089 225.995 18.4202 226.979 18.0416C227.285 17.9242 227.566 17.8045 227.81 17.6947C227.023 21.0236 225.384 22.5782 223.946 23.3179C223.148 23.7287 222.389 23.8997 221.83 23.9677C221.551 24.0017 221.324 24.0097 221.17 24.0096C221.092 24.0095 221.034 24.0073 220.996 24.0054C220.99 24.0051 220.985 24.0048 220.981 24.0046L215.258 22.537Z" fill="url(#paint42_linear_2_1218)" stroke="url(#paint43_linear_2_1218)"/>
<path d="M212.59 31.9926L212.59 31.9925L212.585 31.9889C210.662 30.658 209.159 29.0616 207.757 27.5716C207.299 27.0855 206.852 26.6107 206.405 26.1601C205.465 25.2136 204.511 24.3635 203.458 23.8137L209.718 23.0145C209.747 23.0283 209.78 23.0445 209.817 23.063C209.965 23.1363 210.18 23.246 210.443 23.3901C210.969 23.6784 211.686 24.1026 212.447 24.6448C213.988 25.7413 215.637 27.2701 216.333 29.0795C217.087 31.0402 217.71 32.2517 218.362 33.053C218.711 33.4814 219.062 33.7861 219.431 34.0245C219.153 34.0828 218.821 34.1277 218.437 34.1376C217.106 34.1721 215.111 33.7864 212.59 31.9926Z" fill="url(#paint44_linear_2_1218)" stroke="url(#paint45_linear_2_1218)"/>
<path d="M191.298 45.0095C191.783 45.6668 192.112 46.4603 192.607 49.5463C192.464 49.5286 192.299 49.5051 192.116 49.4742C191.433 49.3585 190.506 49.1394 189.532 48.727C187.589 47.9042 185.483 46.3283 184.684 43.2734C183.045 37.0095 186.225 32.0099 188.201 30.3996L190.05 29.1096C189.66 29.7278 189.251 30.4407 188.875 31.22C187.605 33.8476 186.645 37.3614 188.254 40.5266L188.254 40.5266L188.257 40.5326C189.471 42.8425 190.289 43.8031 190.856 44.4685C191.024 44.6656 191.17 44.8368 191.298 45.0095Z" fill="url(#paint46_linear_2_1218)" stroke="url(#paint47_linear_2_1218)"/>
<path d="M216.307 50.2742C217.53 52.1397 218.156 54.3582 217.165 56.5391C217.064 55.9624 216.89 55.265 216.589 54.5142C215.797 52.5326 214.134 50.1985 210.695 48.7396C209.924 48.4124 209.496 48.046 209.292 47.7343C209.099 47.4386 209.102 47.1916 209.192 46.9955C209.391 46.5599 210.214 46.0598 211.616 46.2929C212.064 46.3715 212.857 46.7749 213.76 47.4942C214.646 48.1996 215.577 49.1613 216.307 50.2742Z" fill="url(#paint48_linear_2_1218)" stroke="url(#paint49_linear_2_1218)"/>
<path d="M207.43 64.5657C203.47 65.9705 199.891 65.6722 197.275 65.0192C198.499 64.9161 199.77 64.6496 200.949 64.2483C202.421 63.7467 203.786 63.0219 204.733 62.1065C205.686 61.1859 206.26 60.0223 205.99 58.6998L205.99 58.6998L205.989 58.6946C205.694 57.326 205.099 56.4258 204.318 55.8919C203.545 55.3636 202.657 55.2406 201.858 55.2884C201.059 55.3362 200.31 55.5564 199.77 55.7582C199.751 55.7654 199.732 55.7726 199.713 55.7798C199.814 55.531 199.977 55.2519 200.21 54.9579C200.703 54.3382 201.448 53.74 202.345 53.3605C203.238 52.9827 204.269 52.8262 205.348 53.0662C206.424 53.3057 207.585 53.9485 208.726 55.2322L208.728 55.2336C209.73 56.3522 210.133 57.4773 210.196 58.5331C210.26 59.5987 209.979 60.6277 209.558 61.5407C209.138 62.4531 208.586 63.2296 208.136 63.7806C207.912 64.0551 207.715 64.2711 207.575 64.4175C207.515 64.4801 207.466 64.5298 207.43 64.5657Z" fill="url(#paint50_linear_2_1218)" stroke="url(#paint51_linear_2_1218)"/>
<path d="M175.5 52.8C175.792 52.8 176 53.0431 176 53.3C176 53.5919 175.757 53.8 175.5 53.8C175.208 53.8 175 53.5569 175 53.3C175 53.0081 175.243 52.8 175.5 52.8Z" fill="url(#paint52_linear_2_1218)" stroke="url(#paint53_linear_2_1218)"/>
<path d="M175.5 46.8C175.851 46.8 176.2 47.1027 176.2 47.5C176.2 47.8511 175.897 48.2 175.5 48.2C175.159 48.2 174.82 47.9142 174.801 47.5335C174.885 47.0405 175.216 46.8 175.5 46.8Z" fill="url(#paint54_linear_2_1218)" stroke="url(#paint55_linear_2_1218)"/>
<path d="M175.5 40.8C175.924 40.8 176.3 41.1761 176.3 41.6C176.3 42.0238 175.924 42.4 175.5 42.4C175.086 42.4 174.717 42.0408 174.701 41.629C174.743 41.3343 174.852 41.1304 174.979 41.0035C175.105 40.8766 175.276 40.8 175.5 40.8Z" fill="url(#paint56_linear_2_1218)" stroke="url(#paint57_linear_2_1218)"/>
<path d="M175.5 34.7C176.024 34.7 176.4 35.0761 176.4 35.6C176.4 36.1239 176.024 36.5 175.5 36.5C174.976 36.5 174.6 36.1238 174.6 35.6C174.6 35.4126 174.699 35.1834 174.891 34.991C175.083 34.7987 175.313 34.7 175.5 34.7Z" fill="url(#paint58_linear_2_1218)" stroke="url(#paint59_linear_2_1218)"/>
<path d="M175.5 28.7C176.024 28.7 176.5 29.1761 176.5 29.7C176.5 30.2238 176.024 30.7 175.5 30.7C174.976 30.7 174.5 30.2238 174.5 29.7C174.5 29.1761 174.976 28.7 175.5 28.7Z" fill="url(#paint60_linear_2_1218)" stroke="url(#paint61_linear_2_1218)"/>
<path d="M163.578 15.6526L163.578 15.6525L163.575 15.6455C162.272 11.636 160.781 9.01251 159.055 7.848C158.167 7.24943 157.216 7.03521 156.229 7.22284C155.828 7.29888 155.431 7.43927 155.035 7.63845C155.09 7.57481 155.147 7.51149 155.208 7.44892C156.024 6.61201 157.544 5.81867 160.402 6.39028C163.169 6.94371 164.613 8.84039 165.428 11.1654C166.135 13.1829 166.343 15.4517 166.517 17.3411C166.546 17.6555 166.573 17.9593 166.602 18.2497C166.708 19.3069 166.976 20.1011 167.36 20.6935C167.499 20.9082 167.651 21.0931 167.812 21.2522C166.402 20.725 164.705 19.3051 163.578 15.6526Z" fill="url(#paint62_linear_2_1218)" stroke="url(#paint63_linear_2_1218)"/>
<path d="M187.522 15.6526C186.395 19.3051 184.698 20.725 183.288 21.2522C183.449 21.0931 183.601 20.9082 183.74 20.6935C184.124 20.1011 184.392 19.3069 184.498 18.2497C184.527 17.9593 184.554 17.6555 184.583 17.3411C184.757 15.4517 184.965 13.1829 185.672 11.1654C186.487 8.84039 187.931 6.94371 190.698 6.39029L190.7 6.38996C193.503 5.81969 195.026 6.60986 195.857 7.45125C195.908 7.50309 195.957 7.55543 196.003 7.60804C195.628 7.42493 195.251 7.29495 194.871 7.22284C193.884 7.03521 192.933 7.24943 192.045 7.848C190.319 9.01251 188.828 11.636 187.524 15.6455L187.524 15.6455L187.522 15.6526Z" fill="url(#paint64_linear_2_1218)" stroke="url(#paint65_linear_2_1218)"/>
<path d="M175.6 3.39996C175.213 3.0837 175.213 3.08389 175.212 3.0841L175.212 3.08465L175.211 3.08616L175.207 3.09083L175.194 3.10673C175.184 3.12023 175.168 3.13953 175.149 3.16448C175.111 3.21437 175.056 3.28694 174.989 3.38114C174.853 3.56949 174.665 3.84464 174.448 4.19838C174.016 4.90531 173.469 5.92925 173.005 7.20409C172.3 9.14408 171.786 11.6732 172.171 14.5478C171.72 13.5754 171.247 12.2508 170.89 10.5L170.89 10.5L170.888 10.4905C170.325 7.984 169.506 6.76165 168.565 6.13396C168.553 6.12632 168.542 6.11878 168.53 6.11134C169.467 6.16199 170.383 6.39009 170.946 6.95353L171.607 7.61415L171.79 6.69836L171.79 6.69825L171.79 6.69823L171.79 6.69803L171.791 6.69662L171.792 6.68814L171.8 6.6507C171.808 6.61691 171.819 6.56581 171.835 6.49944C171.868 6.36664 171.917 6.17306 171.987 5.93489C172.128 5.45773 172.348 4.80602 172.667 4.10777C173.281 2.76421 174.225 1.32619 175.596 0.565201C176.92 1.32505 177.841 2.75993 178.444 4.10452C178.757 4.80344 178.975 5.4558 179.114 5.9335C179.183 6.17193 179.233 6.36577 179.265 6.4988C179.281 6.56528 179.292 6.6165 179.3 6.6504L179.308 6.68799L179.309 6.69655L179.31 6.69804L179.31 6.69819L179.31 6.69824L179.31 6.69834L179.493 7.61415L180.154 6.95353C180.734 6.37314 181.686 6.13055 182.652 6.0749C182.621 6.09388 182.591 6.11355 182.56 6.13396C181.613 6.76536 180.821 7.99453 180.31 10.5C179.954 12.244 179.484 13.5651 179.034 14.5364C179.41 11.6985 178.897 9.18144 178.195 7.24235C177.732 5.96178 177.185 4.92891 176.753 4.21459C176.537 3.85716 176.349 3.57867 176.213 3.38794C176.146 3.29256 176.091 3.21905 176.053 3.16851C176.034 3.14324 176.019 3.12371 176.008 3.11006L175.995 3.09399L175.992 3.08929L175.991 3.08779L175.99 3.08724C175.99 3.08703 175.99 3.08684 175.6 3.39996ZM175.6 3.39996L175.213 3.0837L175.603 2.60556L175.99 3.08684L175.6 3.39996Z" fill="url(#paint66_linear_2_1218)" stroke="url(#paint67_linear_2_1218)"/>
<path d="M176.3 18.3C176.3 18.7238 176.024 19 175.6 19C175.176 19 174.9 18.7238 174.9 18.3C174.9 17.8761 175.176 17.6 175.6 17.6C175.737 17.6 175.917 17.6737 176.071 17.8285C176.226 17.9834 176.3 18.1626 176.3 18.3Z" fill="url(#paint68_linear_2_1218)" stroke="url(#paint69_linear_2_1218)"/>
<path d="M171.2 19.1999H171.25L171.298 19.1902C171.343 19.1812 171.401 19.1896 171.471 19.2652C171.547 19.3473 171.6 19.4757 171.6 19.6C171.6 19.8239 171.424 20 171.2 20C170.976 20 170.8 19.8238 170.8 19.6C170.8 19.3761 170.976 19.1999 171.2 19.1999Z" fill="url(#paint70_linear_2_1218)" stroke="url(#paint71_linear_2_1218)"/>
<path d="M179.9 19.1999H179.949L179.998 19.1902C180.043 19.1812 180.101 19.1896 180.171 19.2652C180.247 19.3473 180.3 19.4757 180.3 19.6C180.3 19.8238 180.124 20 179.9 20C179.676 20 179.5 19.8239 179.5 19.6C179.5 19.3761 179.676 19.1999 179.9 19.1999Z" fill="url(#paint72_linear_2_1218)" stroke="url(#paint73_linear_2_1218)"/>
<path d="M167.256 25.3439C168.251 24.7476 169.414 24.2369 170.821 23.885C171.627 23.6837 172.397 23.4917 173.162 23.3961L173.192 23.3924L173.221 23.385C173.551 23.3026 173.887 23.3 174.4 23.3H174.402H174.405H174.407H174.409H174.412H174.414H174.416H174.419H174.421H174.424H174.426H174.428H174.431H174.433H174.435H174.438H174.44H174.443H174.445H174.447H174.45H174.452H174.454H174.457H174.459H174.462H174.464H174.466H174.469H174.471H174.474H174.476H174.479H174.481H174.483H174.486H174.488H174.491H174.493H174.495H174.498H174.5H174.503H174.505H174.508H174.51H174.512H174.515H174.517H174.52H174.522H174.525H174.527H174.53H174.532H174.535H174.537H174.539H174.542H174.544H174.547H174.549H174.552H174.554H174.557H174.559H174.562H174.564H174.567H174.569H174.572H174.574H174.577H174.579H174.582H174.584H174.587H174.589H174.592H174.594H174.597H174.599H174.602H174.604H174.607H174.609H174.612H174.614H174.617H174.619H174.622H174.624H174.627H174.629H174.632H174.634H174.637H174.639H174.642H174.644H174.647H174.649H174.652H174.654H174.657H174.659H174.662H174.665H174.667H174.67H174.672H174.675H174.677H174.68H174.682H174.685H174.687H174.69H174.693H174.695H174.698H174.7H174.703H174.705H174.708H174.71H174.713H174.716H174.718H174.721H174.723H174.726H174.728H174.731H174.734H174.736H174.739H174.741H174.744H174.746H174.749H174.752H174.754H174.757H174.759H174.762H174.765H174.767H174.77H174.772H174.775H174.777H174.78H174.783H174.785H174.788H174.79H174.793H174.796H174.798H174.801H174.803H174.806H174.809H174.811H174.814H174.816H174.819H174.822H174.824H174.827H174.829H174.832H174.835H174.837H174.84H174.842H174.845H174.848H174.85H174.853H174.855H174.858H174.861H174.863H174.866H174.869H174.871H174.874H174.876H174.879H174.882H174.884H174.887H174.889H174.892H174.895H174.897H174.9H174.903H174.905H174.908H174.91H174.913H174.916H174.918H174.921H174.924H174.926H174.929H174.931H174.934H174.937H174.939H174.942H174.945H174.947H174.95H174.952H174.955H174.958H174.96H174.963H174.966H174.968H174.971H174.974H174.976H174.979H174.981H174.984H174.987H174.989H174.992H174.995H174.997H175H175.003H175.005H175.008H175.01H175.013H175.016H175.018H175.021H175.024H175.026H175.029H175.032H175.034H175.037H175.039H175.042H175.045H175.047H175.05H175.053H175.055H175.058H175.061H175.063H175.066H175.068H175.071H175.074H175.076H175.079H175.082H175.084H175.087H175.09H175.092H175.095H175.097H175.1H175.103H175.105H175.108H175.111H175.113H175.116H175.119H175.121H175.124H175.126H175.129H175.132H175.134H175.137H175.14H175.142H175.145H175.147H175.15H175.153H175.155H175.158H175.161H175.163H175.166H175.169H175.171H175.174H175.176H175.179H175.182H175.184H175.187H175.19H175.192H175.195H175.197H175.2H175.203H175.205H175.208H175.21H175.213H175.216H175.218H175.221H175.224H175.226H175.229H175.231H175.234H175.237H175.239H175.242H175.245H175.247H175.25H175.252H175.255H175.258H175.26H175.263H175.265H175.268H175.271H175.273H175.276H175.278H175.281H175.284H175.286H175.289H175.291H175.294H175.297H175.299H175.302H175.304H175.307H175.31H175.312H175.315H175.317H175.32H175.323H175.325H175.328H175.33H175.333H175.335H175.338H175.341H175.343H175.346H175.348H175.351H175.354H175.356H175.359H175.361H175.364H175.366H175.369H175.372H175.374H175.377H175.379H175.382H175.384H175.387H175.39H175.392H175.395H175.397H175.4H175.402H175.405H175.407H175.41H175.413H175.415H175.418H175.42H175.423H175.425H175.428H175.43H175.433H175.435H175.438H175.44H175.443H175.446H175.448H175.451H175.453H175.456H175.458H175.461H175.463H175.466H175.468H175.471H175.473H175.476H175.478H175.481H175.483H175.486H175.488H175.491H175.493H175.496H175.498H175.501H175.503H175.506H175.508H175.511H175.513H175.516H175.518H175.521H175.523H175.526H175.528H175.531H175.533H175.536H175.538H175.541H175.543H175.546H175.548H175.551H175.553H175.556H175.558H175.561H175.563H175.565H175.568H175.57H175.573H175.575H175.578H175.58H175.583H175.585H175.587H175.59H175.592H175.595H175.597H175.6H175.602H175.605H175.607H175.609H175.612H175.614H175.617H175.619H175.621H175.624H175.626H175.629H175.631H175.634H175.636H175.638H175.641H175.643H175.646H175.648H175.65H175.653H175.655H175.657H175.66H175.662H175.665H175.667H175.669H175.672H175.674H175.676H175.679H175.681H175.684H175.686H175.688H175.691H175.693H175.695H175.698H175.7C177.445 23.3 179.101 23.591 180.571 23.9831C181.67 24.2761 182.718 24.7389 183.629 25.2442C182.72 24.9096 181.71 24.632 180.598 24.4097L180.58 24.4061L180.562 24.4038L180.55 24.4023C178.958 24.2033 177.331 24 175.6 24H175.598H175.595H175.593H175.591H175.588H175.586H175.584H175.581H175.579H175.576H175.574H175.572H175.569H175.567H175.565H175.562H175.56H175.557H175.555H175.553H175.55H175.548H175.545H175.543H175.541H175.538H175.536H175.533H175.531H175.529H175.526H175.524H175.521H175.519H175.517H175.514H175.512H175.509H175.507H175.504H175.502H175.5H175.497H175.495H175.492H175.49H175.487H175.485H175.483H175.48H175.478H175.475H175.473H175.47H175.468H175.465H175.463H175.46H175.458H175.456H175.453H175.451H175.448H175.446H175.443H175.441H175.438H175.436H175.433H175.431H175.428H175.426H175.423H175.421H175.418H175.416H175.413H175.411H175.408H175.406H175.403H175.401H175.398H175.396H175.393H175.391H175.388H175.386H175.383H175.381H175.378H175.376H175.373H175.371H175.368H175.366H175.363H175.361H175.358H175.356H175.353H175.351H175.348H175.346H175.343H175.34H175.338H175.335H175.333H175.33H175.328H175.325H175.323H175.32H175.318H175.315H175.312H175.31H175.307H175.305H175.302H175.3H175.297H175.295H175.292H175.289H175.287H175.284H175.282H175.279H175.277H175.274H175.272H175.269H175.266H175.264H175.261H175.259H175.256H175.254H175.251H175.248H175.246H175.243H175.241H175.238H175.235H175.233H175.23H175.228H175.225H175.223H175.22H175.217H175.215H175.212H175.21H175.207H175.204H175.202H175.199H175.197H175.194H175.191H175.189H175.186H175.184H175.181H175.178H175.176H175.173H175.171H175.168H175.165H175.163H175.16H175.158H175.155H175.152H175.15H175.147H175.144H175.142H175.139H175.137H175.134H175.131H175.129H175.126H175.124H175.121H175.118H175.116H175.113H175.11H175.108H175.105H175.103H175.1H175.097H175.095H175.092H175.09H175.087H175.084H175.082H175.079H175.076H175.074H175.071H175.068H175.066H175.063H175.061H175.058H175.055H175.053H175.05H175.047H175.045H175.042H175.04H175.037H175.034H175.032H175.029H175.026H175.024H175.021H175.019H175.016H175.013H175.011H175.008H175.005H175.003H175H174.997H174.995H174.992H174.99H174.987H174.984H174.982H174.979H174.976H174.974H174.971H174.968H174.966H174.963H174.961H174.958H174.955H174.953H174.95H174.947H174.945H174.942H174.939H174.937H174.934H174.932H174.929H174.926H174.924H174.921H174.918H174.916H174.913H174.91H174.908H174.905H174.903H174.9H174.897H174.895H174.892H174.889H174.887H174.884H174.881H174.879H174.876H174.874H174.871H174.868H174.866H174.863H174.86H174.858H174.855H174.852H174.85H174.847H174.845H174.842H174.839H174.837H174.834H174.831H174.829H174.826H174.824H174.821H174.818H174.816H174.813H174.81H174.808H174.805H174.803H174.8H174.797H174.795H174.792H174.789H174.787H174.784H174.782H174.779H174.776H174.774H174.771H174.769H174.766H174.763H174.761H174.758H174.755H174.753H174.75H174.748H174.745H174.742H174.74H174.737H174.735H174.732H174.729H174.727H174.724H174.722H174.719H174.716H174.714H174.711H174.709H174.706H174.703H174.701H174.698H174.696H174.693H174.69H174.688H174.685H174.683H174.68H174.677H174.675H174.672H174.67H174.667H174.665H174.662H174.659H174.657H174.654H174.652H174.649H174.646H174.644H174.641H174.639H174.636H174.634H174.631H174.628H174.626H174.623H174.621H174.618H174.616H174.613H174.61H174.608H174.605H174.603H174.6H174.598H174.595H174.593H174.59H174.587H174.585H174.582H174.58H174.577H174.575H174.572H174.57H174.567H174.565H174.562H174.56H174.557H174.554H174.552H174.549H174.547H174.544H174.542H174.539H174.537H174.534H174.532H174.529H174.527H174.524H174.522H174.519H174.517H174.514H174.512H174.509H174.507H174.504H174.502H174.499H174.497H174.494H174.492H174.489H174.487H174.484H174.482H174.479H174.477H174.474H174.472H174.469H174.467H174.464H174.462H174.459H174.457H174.454H174.452H174.449H174.447H174.444H174.442H174.439H174.437H174.435H174.432H174.43H174.427H174.425H174.422H174.42H174.417H174.415H174.413H174.41H174.408H174.405H174.403H174.4H174.398H174.395H174.393H174.391H174.388H174.386H174.383H174.381H174.379H174.376H174.374H174.371H174.369H174.366H174.364H174.362H174.359H174.357H174.354H174.352H174.35H174.347H174.345H174.343H174.34H174.338H174.335H174.333H174.331H174.328H174.326H174.324H174.321H174.319H174.316H174.314H174.312H174.309H174.307H174.305H174.302H174.3L174.277 24C173.9 24 173.459 23.9999 173.009 24.1074C172.22 24.2061 171.426 24.3054 170.729 24.405L170.716 24.407L170.702 24.4097C169.406 24.6688 168.257 25.0011 167.256 25.3439Z" fill="url(#paint74_linear_2_1218)" stroke="url(#paint75_linear_2_1218)"/>
<defs>
<linearGradient id="paint0_linear_2_1218" x1="12.4" y1="45.8742" x2="170.376" y2="45.8742" gradientUnits="userSpaceOnUse">
<stop stop-color="#AC816E"/>
<stop offset="1" stop-color="#5A3322"/>
</linearGradient>
<linearGradient id="paint1_linear_2_1218" x1="0.899963" y1="62.0666" x2="24.6" y2="62.0666" gradientUnits="userSpaceOnUse">
<stop stop-color="#AC816E"/>
<stop offset="1" stop-color="#5A3322"/>
</linearGradient>
<linearGradient id="paint2_linear_2_1218" x1="0.899963" y1="62.0666" x2="24.6" y2="62.0666" gradientUnits="userSpaceOnUse">
<stop stop-color="#AC816E"/>
<stop offset="1" stop-color="#5A3322"/>
</linearGradient>
<linearGradient id="paint3_linear_2_1218" x1="20.8" y1="55.1881" x2="39.2" y2="55.1881" gradientUnits="userSpaceOnUse">
<stop stop-color="#AC816E"/>
<stop offset="1" stop-color="#5A3322"/>
</linearGradient>
<linearGradient id="paint4_linear_2_1218" x1="20.8" y1="55.1881" x2="39.2" y2="55.1881" gradientUnits="userSpaceOnUse">
<stop stop-color="#AC816E"/>
<stop offset="1" stop-color="#5A3322"/>
</linearGradient>
<linearGradient id="paint5_linear_2_1218" x1="35.7" y1="64.0674" x2="59" y2="64.0674" gradientUnits="userSpaceOnUse">
<stop stop-color="#AC816E"/>
<stop offset="1" stop-color="#5A3322"/>
</linearGradient>
<linearGradient id="paint6_linear_2_1218" x1="35.7" y1="64.0674" x2="59" y2="64.0674" gradientUnits="userSpaceOnUse">
<stop stop-color="#AC816E"/>
<stop offset="1" stop-color="#5A3322"/>
</linearGradient>
<linearGradient id="paint7_linear_2_1218" x1="43.8348" y1="50.1596" x2="59.1103" y2="50.1596" gradientUnits="userSpaceOnUse">
<stop stop-color="#AC816E"/>
<stop offset="1" stop-color="#5A3322"/>
</linearGradient>
<linearGradient id="paint8_linear_2_1218" x1="48.1" y1="42.7229" x2="61.3254" y2="42.7229" gradientUnits="userSpaceOnUse">
<stop stop-color="#AC816E"/>
<stop offset="1" stop-color="#5A3322"/>
</linearGradient>
<linearGradient id="paint9_linear_2_1218" x1="48.1" y1="42.7229" x2="61.3254" y2="42.7229" gradientUnits="userSpaceOnUse">
<stop stop-color="#AC816E"/>
<stop offset="1" stop-color="#5A3322"/>
</linearGradient>
<linearGradient id="paint10_linear_2_1218" x1="50.7829" y1="60.5154" x2="76.2" y2="60.5154" gradientUnits="userSpaceOnUse">
<stop stop-color="#AC816E"/>
<stop offset="1" stop-color="#5A3322"/>
</linearGradient>
<linearGradient id="paint11_linear_2_1218" x1="50.7829" y1="60.5154" x2="76.2" y2="60.5154" gradientUnits="userSpaceOnUse">
<stop stop-color="#AC816E"/>
<stop offset="1" stop-color="#5A3322"/>
</linearGradient>
<linearGradient id="paint12_linear_2_1218" x1="75.3" y1="52.2134" x2="105.8" y2="52.2134" gradientUnits="userSpaceOnUse">
<stop stop-color="#AC816E"/>
<stop offset="1" stop-color="#5A3322"/>
</linearGradient>
<linearGradient id="paint13_linear_2_1218" x1="75.3" y1="52.2134" x2="105.8" y2="52.2134" gradientUnits="userSpaceOnUse">
<stop stop-color="#AC816E"/>
<stop offset="1" stop-color="#5A3322"/>
</linearGradient>
<linearGradient id="paint14_linear_2_1218" x1="93.9" y1="42.7855" x2="135" y2="42.7855" gradientUnits="userSpaceOnUse">
<stop stop-color="#AC816E"/>
<stop offset="1" stop-color="#5A3322"/>
</linearGradient>
<linearGradient id="paint15_linear_2_1218" x1="93.9" y1="42.7855" x2="135" y2="42.7855" gradientUnits="userSpaceOnUse">
<stop stop-color="#AC816E"/>
<stop offset="1" stop-color="#5A3322"/>
</linearGradient>
<linearGradient id="paint16_linear_2_1218" x1="122.6" y1="20.6548" x2="138" y2="20.6548" gradientUnits="userSpaceOnUse">
<stop stop-color="#AC816E"/>
<stop offset="1" stop-color="#5A3322"/>
</linearGradient>
<linearGradient id="paint17_linear_2_1218" x1="122.6" y1="20.6548" x2="138" y2="20.6548" gradientUnits="userSpaceOnUse">
<stop stop-color="#AC816E"/>
<stop offset="1" stop-color="#5A3322"/>
</linearGradient>
<linearGradient id="paint18_linear_2_1218" x1="130.4" y1="28.5698" x2="150.7" y2="28.5698" gradientUnits="userSpaceOnUse">
<stop stop-color="#AC816E"/>
<stop offset="1" stop-color="#5A3322"/>
</linearGradient>
<linearGradient id="paint19_linear_2_1218" x1="130.4" y1="28.5698" x2="150.7" y2="28.5698" gradientUnits="userSpaceOnUse">
<stop stop-color="#AC816E"/>
<stop offset="1" stop-color="#5A3322"/>
</linearGradient>
<linearGradient id="paint20_linear_2_1218" x1="157.9" y1="38.55" x2="167.37" y2="38.55" gradientUnits="userSpaceOnUse">
<stop stop-color="#AC816E"/>
<stop offset="1" stop-color="#5A3322"/>
</linearGradient>
<linearGradient id="paint21_linear_2_1218" x1="157.9" y1="38.55" x2="167.37" y2="38.55" gradientUnits="userSpaceOnUse">
<stop stop-color="#AC816E"/>
<stop offset="1" stop-color="#5A3322"/>
</linearGradient>
<linearGradient id="paint22_linear_2_1218" x1="132.896" y1="51.9174" x2="142.367" y2="51.9174" gradientUnits="userSpaceOnUse">
<stop stop-color="#AC816E"/>
<stop offset="1" stop-color="#5A3322"/>
</linearGradient>
<linearGradient id="paint23_linear_2_1218" x1="132.896" y1="51.9174" x2="142.367" y2="51.9174" gradientUnits="userSpaceOnUse">
<stop stop-color="#AC816E"/>
<stop offset="1" stop-color="#5A3322"/>
</linearGradient>
<linearGradient id="paint24_linear_2_1218" x1="140.395" y1="59.2585" x2="158.4" y2="59.2585" gradientUnits="userSpaceOnUse">
<stop stop-color="#AC816E"/>
<stop offset="1" stop-color="#5A3322"/>
</linearGradient>
<linearGradient id="paint25_linear_2_1218" x1="140.395" y1="59.2585" x2="158.4" y2="59.2585" gradientUnits="userSpaceOnUse">
<stop stop-color="#AC816E"/>
<stop offset="1" stop-color="#5A3322"/>
</linearGradient>
<linearGradient id="paint26_linear_2_1218" x1="180.724" y1="45.8742" x2="338.7" y2="45.8742" gradientUnits="userSpaceOnUse">
<stop stop-color="#AC816E"/>
<stop offset="1" stop-color="#5A3322"/>
</linearGradient>
<linearGradient id="paint27_linear_2_1218" x1="326.4" y1="62.0666" x2="350.1" y2="62.0666" gradientUnits="userSpaceOnUse">
<stop stop-color="#AC816E"/>
<stop offset="1" stop-color="#5A3322"/>
</linearGradient>
<linearGradient id="paint28_linear_2_1218" x1="326.4" y1="62.0666" x2="350.1" y2="62.0666" gradientUnits="userSpaceOnUse">
<stop stop-color="#AC816E"/>
<stop offset="1" stop-color="#5A3322"/>
</linearGradient>
<linearGradient id="paint29_linear_2_1218" x1="311.8" y1="55.1881" x2="330.2" y2="55.1881" gradientUnits="userSpaceOnUse">
<stop stop-color="#AC816E"/>
<stop offset="1" stop-color="#5A3322"/>
</linearGradient>
<linearGradient id="paint30_linear_2_1218" x1="311.8" y1="55.1881" x2="330.2" y2="55.1881" gradientUnits="userSpaceOnUse">
<stop stop-color="#AC816E"/>
<stop offset="1" stop-color="#5A3322"/>
</linearGradient>
<linearGradient id="paint31_linear_2_1218" x1="292" y1="64.0674" x2="315.3" y2="64.0674" gradientUnits="userSpaceOnUse">
<stop stop-color="#AC816E"/>
<stop offset="1" stop-color="#5A3322"/>
</linearGradient>
<linearGradient id="paint32_linear_2_1218" x1="292" y1="64.0674" x2="315.3" y2="64.0674" gradientUnits="userSpaceOnUse">
<stop stop-color="#AC816E"/>
<stop offset="1" stop-color="#5A3322"/>
</linearGradient>
<linearGradient id="paint33_linear_2_1218" x1="292.082" y1="50.1596" x2="307.309" y2="50.1596" gradientUnits="userSpaceOnUse">
<stop stop-color="#AC816E"/>
<stop offset="1" stop-color="#5A3322"/>
</linearGradient>
<linearGradient id="paint34_linear_2_1218" x1="289.674" y1="42.7229" x2="302.9" y2="42.7229" gradientUnits="userSpaceOnUse">
<stop stop-color="#AC816E"/>
<stop offset="1" stop-color="#5A3322"/>
</linearGradient>
<linearGradient id="paint35_linear_2_1218" x1="289.674" y1="42.7229" x2="302.9" y2="42.7229" gradientUnits="userSpaceOnUse">
<stop stop-color="#AC816E"/>
<stop offset="1" stop-color="#5A3322"/>
</linearGradient>
<linearGradient id="paint36_linear_2_1218" x1="274.9" y1="60.5154" x2="300.317" y2="60.5154" gradientUnits="userSpaceOnUse">
<stop stop-color="#AC816E"/>
<stop offset="1" stop-color="#5A3322"/>
</linearGradient>
<linearGradient id="paint37_linear_2_1218" x1="274.9" y1="60.5154" x2="300.317" y2="60.5154" gradientUnits="userSpaceOnUse">
<stop stop-color="#AC816E"/>
<stop offset="1" stop-color="#5A3322"/>
</linearGradient>
<linearGradient id="paint38_linear_2_1218" x1="245.3" y1="52.2134" x2="275.8" y2="52.2134" gradientUnits="userSpaceOnUse">
<stop stop-color="#AC816E"/>
<stop offset="1" stop-color="#5A3322"/>
</linearGradient>
<linearGradient id="paint39_linear_2_1218" x1="245.3" y1="52.2134" x2="275.8" y2="52.2134" gradientUnits="userSpaceOnUse">
<stop stop-color="#AC816E"/>
<stop offset="1" stop-color="#5A3322"/>
</linearGradient>
<linearGradient id="paint40_linear_2_1218" x1="216.1" y1="42.7855" x2="257.2" y2="42.7855" gradientUnits="userSpaceOnUse">
<stop stop-color="#AC816E"/>
<stop offset="1" stop-color="#5A3322"/>
</linearGradient>
<linearGradient id="paint41_linear_2_1218" x1="216.1" y1="42.7855" x2="257.2" y2="42.7855" gradientUnits="userSpaceOnUse">
<stop stop-color="#AC816E"/>
<stop offset="1" stop-color="#5A3322"/>
</linearGradient>
<linearGradient id="paint42_linear_2_1218" x1="213.1" y1="20.6548" x2="228.5" y2="20.6548" gradientUnits="userSpaceOnUse">
<stop stop-color="#AC816E"/>
<stop offset="1" stop-color="#5A3322"/>
</linearGradient>
<linearGradient id="paint43_linear_2_1218" x1="213.1" y1="20.6548" x2="228.5" y2="20.6548" gradientUnits="userSpaceOnUse">
<stop stop-color="#AC816E"/>
<stop offset="1" stop-color="#5A3322"/>
</linearGradient>
<linearGradient id="paint44_linear_2_1218" x1="200.4" y1="28.5698" x2="220.7" y2="28.5698" gradientUnits="userSpaceOnUse">
<stop stop-color="#AC816E"/>
<stop offset="1" stop-color="#5A3322"/>
</linearGradient>
<linearGradient id="paint45_linear_2_1218" x1="200.4" y1="28.5698" x2="220.7" y2="28.5698" gradientUnits="userSpaceOnUse">
<stop stop-color="#AC816E"/>
<stop offset="1" stop-color="#5A3322"/>
</linearGradient>
<linearGradient id="paint46_linear_2_1218" x1="183.73" y1="38.55" x2="193.2" y2="38.55" gradientUnits="userSpaceOnUse">
<stop stop-color="#AC816E"/>
<stop offset="1" stop-color="#5A3322"/>
</linearGradient>
<linearGradient id="paint47_linear_2_1218" x1="183.73" y1="38.55" x2="193.2" y2="38.55" gradientUnits="userSpaceOnUse">
<stop stop-color="#AC816E"/>
<stop offset="1" stop-color="#5A3322"/>
</linearGradient>
<linearGradient id="paint48_linear_2_1218" x1="208.633" y1="51.9174" x2="218.156" y2="51.9174" gradientUnits="userSpaceOnUse">
<stop stop-color="#AC816E"/>
<stop offset="1" stop-color="#5A3322"/>
</linearGradient>
<linearGradient id="paint49_linear_2_1218" x1="208.633" y1="51.9174" x2="218.156" y2="51.9174" gradientUnits="userSpaceOnUse">
<stop stop-color="#AC816E"/>
<stop offset="1" stop-color="#5A3322"/>
</linearGradient>
<linearGradient id="paint50_linear_2_1218" x1="192.7" y1="59.2585" x2="210.705" y2="59.2585" gradientUnits="userSpaceOnUse">
<stop stop-color="#AC816E"/>
<stop offset="1" stop-color="#5A3322"/>
</linearGradient>
<linearGradient id="paint51_linear_2_1218" x1="192.7" y1="59.2585" x2="210.705" y2="59.2585" gradientUnits="userSpaceOnUse">
<stop stop-color="#AC816E"/>
<stop offset="1" stop-color="#5A3322"/>
</linearGradient>
<linearGradient id="paint52_linear_2_1218" x1="174.5" y1="53.3" x2="176.5" y2="53.3" gradientUnits="userSpaceOnUse">
<stop stop-color="#AC816E"/>
<stop offset="1" stop-color="#5A3322"/>
</linearGradient>
<linearGradient id="paint53_linear_2_1218" x1="174.5" y1="53.3" x2="176.5" y2="53.3" gradientUnits="userSpaceOnUse">
<stop stop-color="#AC816E"/>
<stop offset="1" stop-color="#5A3322"/>
</linearGradient>
<linearGradient id="paint54_linear_2_1218" x1="174.3" y1="47.5" x2="176.7" y2="47.5" gradientUnits="userSpaceOnUse">
<stop stop-color="#AC816E"/>
<stop offset="1" stop-color="#5A3322"/>
</linearGradient>
<linearGradient id="paint55_linear_2_1218" x1="174.3" y1="47.5" x2="176.7" y2="47.5" gradientUnits="userSpaceOnUse">
<stop stop-color="#AC816E"/>
<stop offset="1" stop-color="#5A3322"/>
</linearGradient>
<linearGradient id="paint56_linear_2_1218" x1="174.2" y1="41.6" x2="176.8" y2="41.6" gradientUnits="userSpaceOnUse">
<stop stop-color="#AC816E"/>
<stop offset="1" stop-color="#5A3322"/>
</linearGradient>
<linearGradient id="paint57_linear_2_1218" x1="174.2" y1="41.6" x2="176.8" y2="41.6" gradientUnits="userSpaceOnUse">
<stop stop-color="#AC816E"/>
<stop offset="1" stop-color="#5A3322"/>
</linearGradient>
<linearGradient id="paint58_linear_2_1218" x1="174.1" y1="35.6" x2="176.9" y2="35.6" gradientUnits="userSpaceOnUse">
<stop stop-color="#AC816E"/>
<stop offset="1" stop-color="#5A3322"/>
</linearGradient>
<linearGradient id="paint59_linear_2_1218" x1="174.1" y1="35.6" x2="176.9" y2="35.6" gradientUnits="userSpaceOnUse">
<stop stop-color="#AC816E"/>
<stop offset="1" stop-color="#5A3322"/>
</linearGradient>
<linearGradient id="paint60_linear_2_1218" x1="174" y1="29.7" x2="177" y2="29.7" gradientUnits="userSpaceOnUse">
<stop stop-color="#AC816E"/>
<stop offset="1" stop-color="#5A3322"/>
</linearGradient>
<linearGradient id="paint61_linear_2_1218" x1="174" y1="29.7" x2="177" y2="29.7" gradientUnits="userSpaceOnUse">
<stop stop-color="#AC816E"/>
<stop offset="1" stop-color="#5A3322"/>
</linearGradient>
<linearGradient id="paint62_linear_2_1218" x1="153.7" y1="13.8707" x2="171" y2="13.8707" gradientUnits="userSpaceOnUse">
<stop stop-color="#AC816E"/>
<stop offset="1" stop-color="#5A3322"/>
</linearGradient>
<linearGradient id="paint63_linear_2_1218" x1="153.7" y1="13.8707" x2="171" y2="13.8707" gradientUnits="userSpaceOnUse">
<stop stop-color="#AC816E"/>
<stop offset="1" stop-color="#5A3322"/>
</linearGradient>
<linearGradient id="paint64_linear_2_1218" x1="180.1" y1="13.8707" x2="197.4" y2="13.8707" gradientUnits="userSpaceOnUse">
<stop stop-color="#AC816E"/>
<stop offset="1" stop-color="#5A3322"/>
</linearGradient>
<linearGradient id="paint65_linear_2_1218" x1="180.1" y1="13.8707" x2="197.4" y2="13.8707" gradientUnits="userSpaceOnUse">
<stop stop-color="#AC816E"/>
<stop offset="1" stop-color="#5A3322"/>
</linearGradient>
<linearGradient id="paint66_linear_2_1218" x1="166.1" y1="8.59998" x2="185.1" y2="8.59998" gradientUnits="userSpaceOnUse">
<stop stop-color="#AC816E"/>
<stop offset="1" stop-color="#5A3322"/>
</linearGradient>
<linearGradient id="paint67_linear_2_1218" x1="166.1" y1="8.59998" x2="185.1" y2="8.59998" gradientUnits="userSpaceOnUse">
<stop stop-color="#AC816E"/>
<stop offset="1" stop-color="#5A3322"/>
</linearGradient>
<linearGradient id="paint68_linear_2_1218" x1="174.4" y1="18.3" x2="176.8" y2="18.3" gradientUnits="userSpaceOnUse">
<stop stop-color="#AC816E"/>
<stop offset="1" stop-color="#5A3322"/>
</linearGradient>
<linearGradient id="paint69_linear_2_1218" x1="174.4" y1="18.3" x2="176.8" y2="18.3" gradientUnits="userSpaceOnUse">
<stop stop-color="#AC816E"/>
<stop offset="1" stop-color="#5A3322"/>
</linearGradient>
<linearGradient id="paint70_linear_2_1218" x1="170.3" y1="19.5935" x2="172.1" y2="19.5935" gradientUnits="userSpaceOnUse">
<stop stop-color="#AC816E"/>
<stop offset="1" stop-color="#5A3322"/>
</linearGradient>
<linearGradient id="paint71_linear_2_1218" x1="170.3" y1="19.5935" x2="172.1" y2="19.5935" gradientUnits="userSpaceOnUse">
<stop stop-color="#AC816E"/>
<stop offset="1" stop-color="#5A3322"/>
</linearGradient>
<linearGradient id="paint72_linear_2_1218" x1="179" y1="19.5935" x2="180.8" y2="19.5935" gradientUnits="userSpaceOnUse">
<stop stop-color="#AC816E"/>
<stop offset="1" stop-color="#5A3322"/>
</linearGradient>
<linearGradient id="paint73_linear_2_1218" x1="179" y1="19.5935" x2="180.8" y2="19.5935" gradientUnits="userSpaceOnUse">
<stop stop-color="#AC816E"/>
<stop offset="1" stop-color="#5A3322"/>
</linearGradient>
<linearGradient id="paint74_linear_2_1218" x1="163.5" y1="25.7" x2="187.8" y2="25.7" gradientUnits="userSpaceOnUse">
<stop stop-color="#AC816E"/>
<stop offset="1" stop-color="#5A3322"/>
</linearGradient>
<linearGradient id="paint75_linear_2_1218" x1="163.5" y1="25.7" x2="187.8" y2="25.7" gradientUnits="userSpaceOnUse">
<stop stop-color="#AC816E"/>
<stop offset="1" stop-color="#5A3322"/>
</linearGradient>
</defs>
</svg>
