<svg id="logo" viewBox="0 0 156 90" fill="none" xmlns="http://www.w3.org/2000/svg">
<path d="M65.2666 28.5176L67.5855 32.8573C67.6683 32.8159 77.0267 27.9803 89.9878 32.9813L91.7683 28.435C76.7369 22.5661 65.7221 28.2696 65.2666 28.5176ZM68.0824 30.6254C67.7511 30.7494 67.3371 30.5428 67.2128 30.1295C67.0886 29.7575 67.2542 29.3442 67.6269 29.2202C67.9996 29.0962 68.3723 29.3442 68.4965 29.7162C68.6207 30.1295 68.4137 30.5428 68.0824 30.6254ZM70.7326 30.0055C70.3185 30.0882 69.9458 29.8402 69.8216 29.3855C69.6974 28.9309 69.9458 28.5176 70.3599 28.3936C70.774 28.311 71.1881 28.6003 71.2709 29.0549C71.3537 29.5095 71.1053 29.9228 70.7326 30.0055ZM73.9625 29.2616C73.8382 29.4269 73.6312 29.5922 73.4242 29.5922C73.2171 29.6335 72.9687 29.5509 72.803 29.4269C72.6374 29.3029 72.5132 29.0962 72.4718 28.8483C72.4304 28.6003 72.4718 28.3523 72.596 28.187C72.7202 28.0217 72.9272 27.8563 73.1757 27.8563C73.4242 27.815 73.6312 27.8977 73.7968 28.0217C73.9625 28.187 74.0867 28.3936 74.1281 28.6416C74.1281 28.8483 74.0867 29.0962 73.9625 29.2616ZM76.1158 29.4269C75.6188 29.4682 75.2047 29.0549 75.1219 28.4763C75.0805 27.939 75.4532 27.443 75.9915 27.4017C76.5298 27.3604 76.9439 27.815 76.9853 28.3523C76.9853 28.9309 76.6127 29.3855 76.1158 29.4269ZM78.8073 29.4682C78.269 29.4682 77.8135 28.9722 77.8135 28.3523C77.8135 27.7324 78.269 27.2777 78.8487 27.2777C79.4285 27.2777 79.884 27.815 79.8426 28.3936C79.8012 29.0136 79.3456 29.4682 78.8073 29.4682ZM82.5341 28.6416C82.4513 29.1789 81.9958 29.5922 81.5403 29.5509C81.0434 29.5095 80.6707 29.0136 80.7121 28.4763C80.7535 27.939 81.2091 27.5257 81.706 27.567C82.2029 27.567 82.5756 28.1043 82.5341 28.6416ZM85.1843 29.0549C85.1015 29.5509 84.646 29.8815 84.1905 29.7988C83.735 29.7162 83.4451 29.2616 83.5279 28.7656C83.6108 28.2696 84.0249 27.939 84.5218 28.0217C84.9773 28.063 85.2671 28.559 85.1843 29.0549ZM87.8345 29.6335C87.7103 30.0882 87.2962 30.3361 86.9235 30.2535C86.5508 30.1295 86.3024 29.7162 86.3852 29.3029C86.468 28.8483 86.8821 28.559 87.2962 28.6829C87.7103 28.7656 87.9173 29.2202 87.8345 29.6335ZM89.5322 30.9148C89.201 30.7908 88.9939 30.4188 89.1182 30.0468C89.2424 29.6749 89.6151 29.4269 89.9878 29.5509C90.3604 29.6335 90.5261 30.0882 90.4018 30.4601C90.2776 30.7908 89.9049 30.9974 89.5322 30.9148Z" fill="#C19A74"/>
<path d="M92.0996 27.7737C84.0249 24.3846 77.0682 24.55 72.6788 25.2939C67.9168 26.0792 65.0181 27.7324 64.9767 27.7324L64.5212 26.9058C64.6455 26.8231 67.5441 25.2112 72.4718 24.3433C76.9853 23.558 84.1491 23.3927 92.4723 26.8644L92.0996 27.7737Z" fill="#C19A74"/>
<path d="M66.6331 25.4179C66.6331 25.4179 60.6288 22.2768 62.0367 15.788C63.4446 9.29922 68.952 9.5472 69.9872 9.1339C69.9872 9.1339 69.2419 6.98475 70.3185 5.99283C70.3185 5.99283 72.0991 6.40613 72.2647 7.43938C72.4304 8.55529 71.685 9.79518 71.2709 10.0845C70.2771 10.7044 64.8525 10.3738 64.0657 14.4655C64.0657 14.4655 66.7573 12.9363 67.5027 12.4403C67.5027 12.4403 68.041 15.0854 66.9643 17.0279C65.9291 19.0117 63.0305 21.6155 66.6331 25.4179Z" fill="#C19A74"/>
<path d="M90.4018 25.4179C90.4018 25.4179 96.4061 22.2768 94.9982 15.788C93.5903 9.29922 88.0829 9.5472 87.0477 9.1339C87.0477 9.1339 87.7931 6.98475 86.7164 5.99283C86.7164 5.99283 84.9358 6.40613 84.7702 7.43938C84.6046 8.55529 85.3499 9.79518 85.764 10.0845C86.7578 10.7044 92.1824 10.3738 92.9692 14.4655C92.9692 14.4655 90.2776 12.9363 89.5322 12.4403C89.5322 12.4403 88.9939 15.0854 90.0706 17.0279C91.1058 19.0117 93.963 21.6155 90.4018 25.4179Z" fill="#C19A74"/>
<path d="M76.3642 23.558C76.3642 23.558 71.4365 24.7153 68.4137 21.8635C68.4137 21.8635 69.5731 20.293 71.9749 20.3343C71.9749 20.3343 67.2956 15.7467 70.4427 13.3496C73.4656 11.0351 77.8549 19.2597 78.0206 22.0288C78.0206 22.0288 74.5422 15.0441 72.0163 15.4574C69.4903 15.8707 75.4532 23.2687 76.3642 23.558Z" fill="#C19A74"/>
<path d="M80.6707 23.558C80.6707 23.558 85.5984 24.7153 88.6213 21.8635C88.6213 21.8635 87.4618 20.293 85.0601 20.3343C85.0601 20.3343 89.7393 15.7467 86.5922 13.3496C83.5694 11.0351 79.18 19.2597 79.0144 22.0288C79.0144 22.0288 82.4927 15.0441 85.0187 15.4574C87.5032 15.8707 81.5403 23.2687 80.6707 23.558Z" fill="#C19A74"/>
<path d="M75.8259 9.83652C75.8259 9.83652 76.9439 11.9857 76.9853 12.9363H80.0496C80.091 11.9857 81.2091 9.83652 81.2091 9.83652H75.8259Z" fill="#C19A74"/>
<path d="M77.0682 13.7629C77.6479 14.1762 78.5175 21.5742 78.5175 21.5742C78.5175 21.5742 79.3871 14.1762 79.9668 13.7629H77.0682Z" fill="#C19A74"/>
<path d="M73.2999 4.87693C73.2999 4.87693 75.0391 2.89309 76.8197 4.87693C77.8135 5.99284 77.1096 8.38997 78.1034 8.88593C78.1034 8.88593 76.1986 9.42321 75.1219 6.86076C74.0453 4.29831 73.2999 4.87693 73.2999 4.87693Z" fill="#C19A74"/>
<path d="M83.735 4.87693C83.735 4.87693 81.9958 2.89309 80.2152 4.87693C79.2214 5.99284 79.9254 8.38997 78.9316 8.88593C78.9316 8.88593 80.8364 9.42321 81.913 6.86076C82.9896 4.29831 83.735 4.87693 83.735 4.87693Z" fill="#C19A74"/>
<path d="M78.5175 0L75.8259 2.27314C77.1096 2.97575 78.5175 6.28214 78.5175 6.28214C78.5175 6.28214 79.9254 2.97575 81.2091 2.27314L78.5175 0Z" fill="#C19A74"/>
<path d="M75.4118 40.8753C82.2029 46.2895 91.1058 42.5698 97.6898 38.8914C106.013 34.2625 113.757 29.0549 123.405 33.3946C114.336 29.7575 107.131 35.3371 99.3048 39.8007C96.2405 41.5779 82.617 47.1161 75.4118 40.8753Z" fill="#C19A74"/>
<path d="M111.396 43.2724C119.595 46.7854 134.42 37.9408 124.937 35.2131C115.454 32.4853 103.984 41.3712 98.7665 43.603C93.5489 45.7935 85.764 46.7854 84.3976 41.4539C82.7412 35.0064 95.9092 33.9318 95.9092 33.9318C95.9092 33.9318 81.8716 34.7584 83.2381 41.4539C84.5218 47.6534 93.5903 46.3721 98.8079 44.1817C104.025 41.9912 114.75 32.6506 124.192 35.6264C133.012 38.3955 117.525 46.0002 111.396 43.2724Z" fill="#C19A74"/>
<path d="M81.4575 40.8753C74.6664 46.2895 65.7635 42.5698 59.1795 38.8914C50.8563 34.2625 43.1128 29.0549 33.4645 33.3946C42.5331 29.7575 49.7382 35.3371 57.5645 39.8007C60.6702 41.5779 74.2937 47.1161 81.4575 40.8753Z" fill="#C19A74"/>
<path d="M45.5145 43.2724C37.3155 46.7854 22.4911 37.9408 31.9738 35.2131C41.4564 32.4853 52.9267 41.3712 58.1442 43.603C63.3618 45.7935 71.1467 46.7854 72.5132 41.4539C74.1695 35.0064 61.0015 33.9318 61.0015 33.9318C61.0015 33.9318 75.0391 34.7584 73.6726 41.4539C72.3889 47.6534 63.3204 46.3721 58.1028 44.1817C52.8853 41.9912 42.1604 32.6506 32.7191 35.6264C23.899 38.3955 39.3446 46.0002 45.5145 43.2724Z" fill="#C19A74"/>
<path d="M23.9672 52.2569C23.7022 52.3803 23.4019 52.5214 23.0662 52.6801C22.7305 52.8388 22.386 52.9887 22.0326 53.1297C21.6969 53.2708 21.3524 53.3943 20.999 53.5001C20.6633 53.5882 20.3453 53.6323 20.045 53.6323C19.4443 53.6323 18.9761 53.456 18.6404 53.1033C18.3047 52.7506 18.1368 52.1775 18.1368 51.384C18.1368 51.0137 18.1545 50.758 18.1898 50.6169C18.2252 50.4758 18.2429 50.3612 18.2429 50.273C18.2429 50.1496 18.128 50.0879 17.8983 50.0879C17.5273 50.1231 17.0326 50.3348 16.4142 50.7227C15.7959 51.1106 15.0361 51.816 14.1351 52.8388C13.7641 53.2796 13.4637 53.6588 13.234 53.9762C13.0043 54.276 12.8277 54.5317 12.704 54.7433C12.5803 54.9372 12.492 55.0783 12.439 55.1665C12.386 55.2547 12.3418 55.2987 12.3065 55.2987C12.2005 55.2987 12.1474 55.2547 12.1474 55.1665C12.1474 55.1312 12.2358 54.9637 12.4125 54.6639C12.5891 54.3641 12.8277 54.0115 13.128 53.6059C13.4284 53.1827 13.7817 52.733 14.1881 52.2569C14.5944 51.7631 15.0273 51.3223 15.4867 50.9343C15.9637 50.5287 16.4496 50.1937 16.9443 49.9292C17.4566 49.6647 17.9602 49.5412 18.4549 49.5588C18.8612 49.5588 19.1792 49.6735 19.4089 49.9027C19.6563 50.132 19.7976 50.6081 19.833 51.3311C19.8506 51.719 19.8771 52.0364 19.9125 52.2833C19.9478 52.5126 19.992 52.6889 20.045 52.8123C20.098 52.9358 20.1686 53.0151 20.257 53.0504C20.3453 53.0857 20.4425 53.1033 20.5485 53.1033C20.9019 53.1033 21.2729 53.0416 21.6616 52.9181C22.0679 52.7947 22.4566 52.6448 22.8277 52.4685C23.1987 52.2745 23.5432 52.0805 23.8612 51.8865C24.1969 51.6749 24.4884 51.4986 24.7358 51.3575C25.4248 50.9343 25.9549 50.5904 26.3259 50.3259C26.7146 50.0614 27.0061 49.8586 27.2004 49.7176C27.3948 49.5588 27.5361 49.453 27.6245 49.4001C27.7128 49.3296 27.8012 49.2943 27.8895 49.2943C28.0662 49.2943 28.1987 49.3384 28.287 49.4266C28.3754 49.5148 28.4195 49.6206 28.4195 49.744C28.4195 49.938 28.2958 50.0967 28.0485 50.2201C27.8188 50.3259 27.5273 50.4406 27.1739 50.564C26.8383 50.6874 26.4761 50.8285 26.0874 50.9872C25.7163 51.1459 25.3895 51.3575 25.1068 51.622C24.7534 51.9747 24.3736 52.4597 23.9672 53.0769C23.5785 53.694 23.1457 54.417 22.6686 55.2458C22.1916 56.0746 21.6704 57.0004 21.105 58.0232C20.5573 59.0284 19.939 60.0952 19.2499 61.2238C17.8188 63.6044 16.0962 65.359 14.0821 66.4876C12.0856 67.6162 9.9478 68.1805 7.66865 68.1805C6.59091 68.1805 5.62802 68.0482 4.77996 67.7837C3.94957 67.5192 3.24286 67.1577 2.65982 66.6992C2.09445 66.2231 1.66159 65.6676 1.36124 65.0328C1.06088 64.3979 0.910706 63.719 0.910706 62.996C0.910706 62.132 1.10505 61.312 1.49374 60.5361C1.88244 59.7602 2.3948 59.0901 3.03085 58.5258C3.68456 57.9439 4.43544 57.4854 5.28349 57.1503C6.13155 56.8153 7.01494 56.6478 7.93367 56.6478C8.53438 56.6478 9.12625 56.7359 9.70929 56.9123C10.31 57.071 10.84 57.3178 11.2994 57.6529C11.7764 57.9879 12.1563 58.4112 12.439 58.9226C12.7393 59.4163 12.8895 59.9982 12.8895 60.6683C12.8895 61.3208 12.7217 61.9292 12.386 62.4935C12.0503 63.0401 11.6174 63.5162 11.0874 63.9218C10.5573 64.3098 9.95664 64.6184 9.28526 64.8476C8.63155 65.0592 7.97784 65.165 7.32413 65.165C6.97077 65.165 6.62625 65.1386 6.29056 65.0857C5.95487 65.0151 5.65452 64.9358 5.3895 64.8476C5.12448 64.7594 4.90364 64.6713 4.72696 64.5831C4.56795 64.4949 4.48844 64.4244 4.48844 64.3715C4.48844 64.2657 4.54145 64.2128 4.64745 64.2128C4.66512 64.2128 4.73579 64.248 4.85947 64.3186C5.00081 64.3891 5.17749 64.4685 5.3895 64.5566C5.61918 64.6272 5.8842 64.6977 6.18455 64.7682C6.50257 64.8212 6.85593 64.8476 7.24462 64.8476C7.84533 64.8476 8.45487 64.7506 9.07325 64.5566C9.70929 64.345 10.2747 64.0541 10.7694 63.6838C11.2641 63.3134 11.6704 62.8638 11.9884 62.3347C12.3065 61.8057 12.4655 61.2238 12.4655 60.589C12.4655 60.2187 12.3771 59.866 12.2005 59.5309C12.0238 59.1782 11.7499 58.8608 11.3789 58.5787C11.0255 58.2965 10.5838 58.0761 10.0538 57.9174C9.52377 57.7411 8.9054 57.6529 8.19869 57.6529C7.3683 57.6529 6.55558 57.7852 5.76053 58.0497C4.98314 58.3142 4.28526 58.7021 3.66689 59.2135C3.04851 59.7073 2.54498 60.3068 2.15629 61.0122C1.78526 61.7176 1.59975 62.5023 1.59975 63.3663C1.59975 64.1422 1.7676 64.8123 2.10328 65.3766C2.45664 65.9409 2.90717 66.4082 3.45487 66.7785C4.02024 67.1489 4.66512 67.4222 5.3895 67.5985C6.11388 67.7749 6.85593 67.863 7.61565 67.863C8.58738 67.863 9.53261 67.7484 10.4513 67.5192C11.3701 67.2723 12.2623 66.8579 13.128 66.276C13.9937 65.694 14.833 64.9181 15.6457 63.9483C16.4761 62.9608 17.2888 61.7352 18.0838 60.2716C18.5255 59.4604 18.9496 58.7286 19.3559 58.0761C19.7623 57.4237 20.1951 56.7888 20.6545 56.1716C21.1139 55.5544 21.6086 54.9372 22.1386 54.3201C22.6863 53.7029 23.3135 53.0328 24.0202 52.3098L23.9672 52.2569ZM22.8542 59.0813C23.7022 59.3987 24.3471 59.8748 24.7888 60.5096C25.2305 61.1444 25.4513 61.8498 25.4513 62.6257C25.4513 62.8197 25.4248 63.0666 25.3718 63.3663C25.3188 63.6661 25.2658 63.9924 25.2128 64.345C25.1598 64.6977 25.1068 65.0592 25.0538 65.4295C25.0008 65.7998 24.9743 66.1613 24.9743 66.514C24.9743 66.8667 25.0273 67.1577 25.1333 67.3869C25.257 67.5985 25.4513 67.7043 25.7163 67.7043C25.9107 67.7043 26.2287 67.5809 26.6704 67.334C27.1298 67.0695 27.6775 66.6022 28.3135 65.9321C28.9672 65.262 29.4178 64.7682 29.6651 64.4508C29.9301 64.1158 30.0891 63.9483 30.1421 63.9483C30.2305 63.9483 30.2746 64.0012 30.2746 64.107C30.2746 64.1422 30.1598 64.2921 29.9301 64.5566C29.7181 64.8212 29.3471 65.2444 28.817 65.8263C27.5096 67.2899 26.4054 68.0217 25.5043 68.0217C25.257 68.0217 25.0008 67.9512 24.7358 67.8101C24.4708 67.6514 24.2322 67.4398 24.0202 67.1753C23.8082 66.9108 23.6315 66.5934 23.4902 66.2231C23.3489 65.8351 23.2782 65.4119 23.2782 64.9534C23.2782 64.6007 23.3047 64.2304 23.3577 63.8425C23.4107 63.4369 23.4637 63.0577 23.5167 62.7051C23.5697 62.3347 23.6227 62.0085 23.6757 61.7264C23.7287 61.4266 23.7552 61.2062 23.7552 61.0651C23.7552 60.7653 23.7022 60.5096 23.5962 60.298C23.5079 60.0864 23.3842 59.9101 23.2252 59.769C23.0838 59.6279 22.9337 59.5221 22.7746 59.4516C22.6333 59.381 22.5096 59.3458 22.4036 59.3458C22.3153 59.3458 22.2093 59.3722 22.0856 59.4251C21.9619 59.478 21.8559 59.5045 21.7676 59.5045C21.6616 59.5045 21.5556 59.4692 21.4496 59.3987C21.3612 59.3105 21.3171 59.24 21.3171 59.1871C21.3171 59.0107 21.4584 58.9226 21.7411 58.9226C22.2888 58.9226 22.8277 58.7991 23.3577 58.5522C23.9054 58.2877 24.4178 57.9615 24.8948 57.5735C25.3718 57.168 25.8135 56.7447 26.2199 56.3039C26.6439 55.8454 27.0149 55.4134 27.333 55.0078C27.9513 54.2495 28.5962 53.5442 29.2676 52.8917C29.9566 52.2216 30.6457 51.6397 31.3347 51.1459C32.0414 50.6522 32.7393 50.2642 33.4284 49.9821C34.1351 49.6999 34.8241 49.5588 35.4955 49.5588C36.2729 49.5588 36.8824 49.7352 37.3241 50.0879C37.7835 50.4406 38.0132 50.899 38.0132 51.4633C38.0132 51.7455 37.916 51.9747 37.7216 52.1511C37.545 52.3274 37.3064 52.4156 37.0061 52.4156C36.7587 52.4156 36.5202 52.3539 36.2905 52.2304C36.0609 52.0893 35.946 51.8777 35.946 51.5956C35.946 51.3487 36.0079 51.1547 36.1315 51.0137C36.2552 50.8726 36.317 50.7051 36.317 50.5111C36.317 50.3171 36.2022 50.1672 35.9725 50.0614C35.7605 49.938 35.4778 49.8763 35.1245 49.8763C34.8064 49.8763 34.4619 49.9644 34.0909 50.1408C33.7199 50.2995 33.3312 50.5375 32.9248 50.855C32.5361 51.1547 32.1298 51.5251 31.7057 51.9659C31.2817 52.3891 30.8754 52.8564 30.4867 53.3678C29.4443 54.7256 28.3312 55.8895 27.1474 56.8594C25.9637 57.8116 24.5326 58.5346 22.8542 59.0284V59.0813Z" fill="#FCFCFC"/>
<path d="M31.6614 68.0217C31.3257 68.0217 31.0431 67.9512 30.8134 67.8101C30.6014 67.6691 30.4335 67.4927 30.3098 67.2811C30.1862 67.0519 30.0978 66.7962 30.0448 66.514C30.0095 66.2142 29.9918 65.9145 29.9918 65.6147C29.9918 65.4031 30.0007 65.2003 30.0183 65.0063C30.0537 64.7947 30.089 64.5831 30.1243 64.3715C30.089 64.3715 30.0625 64.3891 30.0448 64.4244C30.0272 64.442 30.0007 64.4508 29.9653 64.4508C29.8946 64.4508 29.8593 64.4068 29.8593 64.3186C29.8593 64.2657 29.8858 64.2128 29.9388 64.1599C29.9918 64.107 30.1067 63.9747 30.2833 63.7631C30.6367 63.3223 31.0342 62.9167 31.4759 62.5464C31.9176 62.176 32.3681 61.8498 32.8275 61.5677C33.3045 61.2855 33.7816 61.0651 34.2586 60.9064C34.7533 60.7477 35.2303 60.6683 35.6897 60.6683C36.0961 60.6683 36.3876 60.8006 36.5643 61.0651C36.7409 61.312 36.8293 61.6117 36.8293 61.9644C36.8293 62.2818 36.8028 62.5199 36.7498 62.6786L36.8028 62.7315C37.0325 62.3612 37.2091 62.0526 37.3328 61.8057C37.4741 61.5588 37.589 61.3737 37.6773 61.2503C37.7657 61.1092 37.8452 61.0122 37.9158 60.9593C38.0042 60.8887 38.119 60.8535 38.2604 60.8535L39.5324 60.8006C39.4088 60.9417 39.2233 61.1885 38.9759 61.5412C38.7462 61.8763 38.49 62.2642 38.2074 62.7051C37.9247 63.1283 37.6332 63.5779 37.3328 64.0541C37.0501 64.5302 36.7851 64.9887 36.5378 65.4295C36.2904 65.8704 36.0872 66.2583 35.9282 66.5934C35.7869 66.9284 35.7162 67.1753 35.7162 67.334C35.7162 67.5809 35.8664 67.7043 36.1667 67.7043C36.5731 67.7043 37.1031 67.4045 37.7568 66.805C38.4282 66.1878 39.1526 65.4295 39.93 64.5302C40.089 64.3362 40.1862 64.2216 40.2215 64.1863C40.2568 64.1334 40.2922 64.107 40.3275 64.107C40.3805 64.107 40.4158 64.1246 40.4335 64.1599C40.4688 64.1951 40.4865 64.2304 40.4865 64.2657C40.4865 64.2833 40.4335 64.3539 40.3275 64.4773C40.2392 64.5831 40.1243 64.7154 39.983 64.8741C39.8416 65.0328 39.6826 65.2091 39.5059 65.4031C39.3469 65.5971 39.1879 65.7734 39.0289 65.9321C38.4105 66.5669 37.854 67.0783 37.3593 67.4663C36.8646 67.8366 36.4406 68.0217 36.0872 68.0217C35.7339 68.0217 35.4512 67.8983 35.2392 67.6514C35.0272 67.4045 34.9211 66.9196 34.9211 66.1966C34.9211 66.1084 34.9211 66.0291 34.9211 65.9585C34.9388 65.8704 34.9476 65.791 34.9476 65.7205C34.7533 65.9145 34.5148 66.1437 34.2321 66.4082C33.9671 66.6727 33.6844 66.9284 33.384 67.1753C33.0837 67.4045 32.7833 67.6073 32.483 67.7837C32.1826 67.9424 31.9088 68.0217 31.6614 68.0217ZM31.0519 66.8579C31.0519 67.1048 31.0961 67.3076 31.1844 67.4663C31.2904 67.625 31.4494 67.7043 31.6614 67.7043C32.0501 67.7043 32.5183 67.5015 33.066 67.0959C33.6137 66.6727 34.1438 66.1613 34.6561 65.5618C35.1685 64.9622 35.6014 64.3362 35.9547 63.6838C36.3257 63.0137 36.5112 62.4317 36.5112 61.938C36.5112 61.6735 36.4406 61.453 36.2992 61.2767C36.1756 61.0827 35.9724 60.9857 35.6897 60.9857C35.1597 60.9857 34.612 61.2062 34.0466 61.647C33.4989 62.0702 33.0042 62.5904 32.5625 63.2076C32.1208 63.8248 31.7586 64.4685 31.4759 65.1386C31.1932 65.8087 31.0519 66.3818 31.0519 66.8579Z" fill="#FCFCFC"/>
<path d="M46.4672 55.7484L48.1103 55.6426L46.3877 58.2877H49.4884C49.5767 58.2877 49.6209 58.3406 49.6209 58.4464C49.6209 58.5522 49.5767 58.6051 49.4884 58.6051H46.2022C46.0609 58.852 45.84 59.2135 45.5396 59.6896C45.2393 60.1481 44.9036 60.6683 44.5326 61.2503C44.1616 61.8145 43.7729 62.4141 43.3665 63.0489C42.9778 63.6838 42.6156 64.2833 42.2799 64.8476C41.9619 65.3943 41.6969 65.8968 41.4849 66.3553C41.2729 66.7962 41.1669 67.1136 41.1669 67.3076C41.1669 67.5721 41.3347 67.7043 41.6704 67.7043C42.0768 67.7043 42.5096 67.5456 42.969 67.2282C43.446 66.8932 43.9849 66.4258 44.5856 65.8263C44.9213 65.4912 45.1863 65.2179 45.3806 65.0063C45.5927 64.7771 45.7517 64.6007 45.8577 64.4773C45.9813 64.3362 46.0609 64.2392 46.0962 64.1863C46.1492 64.1158 46.1934 64.0805 46.2287 64.0805C46.317 64.0805 46.3612 64.1334 46.3612 64.2392C46.3612 64.2569 46.3082 64.3274 46.2022 64.4508C46.1139 64.5743 45.999 64.7154 45.8577 64.8741C45.7163 65.0328 45.5573 65.2003 45.3806 65.3766C45.2216 65.553 45.0715 65.7117 44.9301 65.8528C44.1174 66.6639 43.4548 67.2282 42.9425 67.5456C42.4301 67.863 41.9884 68.0217 41.6174 68.0217C41.158 68.0041 40.8312 67.863 40.6368 67.5985C40.4602 67.3164 40.3718 67.0254 40.3718 66.7256C40.3718 66.3553 40.4248 65.9938 40.5308 65.6411C40.6368 65.2708 40.7958 64.8917 41.0079 64.5037C41.2199 64.0982 41.4761 63.6749 41.7764 63.2341C42.0944 62.7756 42.4478 62.2642 42.8365 61.6999L42.7835 61.647C42.5361 61.9468 42.2888 62.2289 42.0414 62.4935C41.8117 62.758 41.5202 63.093 41.1669 63.4986C41.1139 63.5691 41.0255 63.6661 40.9018 63.7896C40.7958 63.913 40.6898 64.0364 40.5838 64.1599C40.4778 64.2833 40.3806 64.3979 40.2923 64.5037C40.204 64.5919 40.151 64.636 40.1333 64.636C40.045 64.636 40.0008 64.6007 40.0008 64.5302C40.0008 64.5126 40.0096 64.4861 40.0273 64.4508C40.045 64.3979 40.0891 64.3274 40.1598 64.2392C40.2481 64.1511 40.363 64.0276 40.5043 63.8689C40.6633 63.6926 40.8753 63.4545 41.1404 63.1547C41.3347 62.9431 41.5732 62.6698 41.8559 62.3347C42.1563 61.9997 42.4655 61.6294 42.7835 61.2238C43.1192 60.8182 43.4548 60.395 43.7905 59.9541C44.1439 59.4957 44.4707 59.046 44.7711 58.6051H43.817C43.7287 58.6051 43.6845 58.5522 43.6845 58.4464C43.6845 58.3406 43.7199 58.2877 43.7905 58.2877H44.9036L46.4672 55.7484Z" fill="#FCFCFC"/>
<path d="M46.1407 64.4773C46.0524 64.4773 46.0082 64.4332 46.0082 64.345C46.0082 64.3098 46.0524 64.2304 46.1407 64.107C46.2467 63.9835 46.3792 63.8336 46.5382 63.6573C46.6972 63.481 46.8651 63.2958 47.0418 63.1018C47.2361 62.9079 47.4128 62.7139 47.5718 62.5199C48.1372 61.9027 48.6319 61.4442 49.0559 61.1444C49.4976 60.827 49.9039 60.6683 50.275 60.6683C50.6107 60.6683 50.8668 60.8006 51.0435 61.0651C51.2202 61.312 51.3085 61.5941 51.3085 61.9115C51.3085 62.176 51.2467 62.4758 51.123 62.8109C50.9994 63.1459 50.8492 63.481 50.6725 63.816C50.4958 64.1511 50.3103 64.4685 50.116 64.7682C49.9216 65.068 49.7626 65.3061 49.6389 65.4824L49.6919 65.5353C50.3986 64.7242 51.0347 64.0717 51.6001 63.5779C52.1654 63.0842 52.51 62.661 52.6336 62.3083C52.775 61.9203 52.987 61.55 53.2697 61.1973C53.5524 60.8447 53.9234 60.6683 54.3827 60.6683C54.8068 60.6683 55.0188 60.8094 55.0188 61.0915C55.0188 61.3561 54.8598 61.6118 54.5418 61.8586C54.2414 62.0879 53.9057 62.3436 53.5347 62.6257C53.1637 62.9079 52.8191 63.2164 52.5011 63.5515C52.2008 63.8865 52.0506 64.2833 52.0506 64.7418C52.0506 65.0063 52.1301 65.2267 52.2891 65.4031C52.4658 65.5618 52.6778 65.6411 52.9252 65.6411C53.3668 65.6411 53.7644 65.4648 54.1177 65.1121C54.4181 64.8123 54.6301 64.5743 54.7538 64.3979C54.8774 64.204 54.9658 64.107 55.0188 64.107C55.1248 64.107 55.1778 64.1511 55.1778 64.2392C55.1778 64.2745 55.0983 64.3891 54.9393 64.5831C54.7803 64.7771 54.6389 64.9446 54.5153 65.0857C54.2502 65.3854 53.9764 65.5971 53.6937 65.7205C53.411 65.8439 53.146 65.9057 52.8986 65.9057C52.5983 65.9057 52.3244 65.8175 52.0771 65.6411C51.8474 65.4472 51.7326 65.1915 51.7326 64.8741C51.7326 64.5743 51.7767 64.3098 51.8651 64.0805C51.9534 63.8336 52.0859 63.6044 52.2626 63.3928L52.2096 63.3399C51.5206 63.9747 50.8492 64.6713 50.1955 65.4295C49.5418 66.1878 48.8792 66.999 48.2078 67.863L46.5382 68.0217C47.2096 66.9461 47.7926 66.0291 48.2873 65.2708C48.7997 64.4949 49.2237 63.8513 49.5594 63.3399C49.9128 62.8285 50.1778 62.4141 50.3545 62.0967C50.5312 61.7793 50.6195 61.5324 50.6195 61.3561C50.6195 61.1092 50.4693 60.9857 50.169 60.9857C49.9746 60.9857 49.7096 61.0827 49.3739 61.2767C49.0559 61.453 48.6319 61.8145 48.1018 62.3612C47.6955 62.7844 47.3686 63.1371 47.1213 63.4192C46.8739 63.6838 46.6796 63.8954 46.5382 64.0541C46.4146 64.2128 46.3174 64.3274 46.2467 64.3979C46.1937 64.4508 46.1584 64.4773 46.1407 64.4773Z" fill="#FCFCFC"/>
<path d="M56.3971 68.0217C55.9907 68.0217 55.6727 67.8983 55.443 67.6514C55.231 67.3869 55.125 67.0519 55.125 66.6463C55.125 66.2054 55.2133 65.7646 55.39 65.3237C55.5667 64.8829 55.7787 64.4508 56.0261 64.0276C56.2911 63.6044 56.5649 63.1988 56.8476 62.8109C57.148 62.4229 57.413 62.0614 57.6427 61.7264L57.5897 61.6735C57.4307 61.8322 57.1745 62.0967 56.8211 62.467C56.4678 62.8373 55.9731 63.384 55.337 64.107C55.1957 64.2657 55.1073 64.3627 55.072 64.3979C55.0367 64.4332 55.0013 64.4508 54.966 64.4508C54.8953 64.4508 54.86 64.3979 54.86 64.2921C54.86 64.2569 54.9042 64.1951 54.9925 64.107C55.0808 64.0012 55.3017 63.7455 55.655 63.3399C55.8317 63.1459 56.0261 62.9343 56.2381 62.7051C56.4678 62.4582 56.6886 62.2201 56.9006 61.9909C57.1126 61.744 57.307 61.5148 57.4837 61.3032C57.678 61.0915 57.8282 60.9152 57.9342 60.7741L59.6038 60.6683C58.8087 61.9732 58.1639 63.0225 57.6692 63.816C57.1921 64.5919 56.8211 65.2091 56.5561 65.6676C56.3088 66.1084 56.1409 66.4347 56.0526 66.6463C55.9642 66.8403 55.9201 67.0078 55.9201 67.1489C55.9201 67.3781 55.9731 67.528 56.0791 67.5985C56.1851 67.6691 56.2999 67.7043 56.4236 67.7043C56.6356 67.7043 56.8653 67.6426 57.1126 67.5192C57.36 67.3957 57.6162 67.2458 57.8812 67.0695C58.1462 66.8755 58.4024 66.6639 58.6497 66.4347C58.9148 66.2054 59.1533 65.9762 59.3653 65.7469C59.542 65.5706 59.7186 65.3854 59.8953 65.1915C60.0897 64.9799 60.2575 64.7859 60.3989 64.6095C60.5579 64.4332 60.6904 64.2921 60.7964 64.1863C60.9024 64.0629 60.9642 64.0012 60.9819 64.0012C61.0879 64.0012 61.1409 64.0452 61.1409 64.1334C61.1409 64.1687 61.0084 64.345 60.7434 64.6624C60.496 64.9622 60.0897 65.4031 59.5243 65.985C58.2169 67.3428 57.1745 68.0217 56.3971 68.0217ZM60.5314 56.489C60.5314 56.2598 60.6109 56.0394 60.7699 55.8278C60.9289 55.5985 61.1586 55.4839 61.4589 55.4839C61.6533 55.4839 61.8034 55.5544 61.9095 55.6955C62.0155 55.819 62.0685 55.9777 62.0685 56.1716C62.0685 56.4009 61.989 56.6301 61.8299 56.8594C61.6709 57.071 61.4412 57.1768 61.1409 57.1768C60.9466 57.1768 60.7964 57.1151 60.6904 56.9916C60.5844 56.8505 60.5314 56.683 60.5314 56.489Z" fill="#FCFCFC"/>
<path d="M61.1324 68.0217C61.2208 67.863 61.3798 67.6073 61.6094 67.2547C61.8568 66.902 62.1395 66.5052 62.4575 66.0644C62.7755 65.6059 63.1024 65.1298 63.4381 64.636C63.7914 64.1422 64.1094 63.6838 64.3921 63.2605C64.6748 62.8197 64.9045 62.4317 65.0812 62.0967C65.2755 61.7616 65.3727 61.5236 65.3727 61.3825C65.3727 61.2414 65.3285 61.1444 65.2402 61.0915C65.1695 61.021 65.0812 60.9857 64.9752 60.9857C64.6041 60.9857 64.2066 61.1444 63.7826 61.4619C63.3762 61.7616 62.8374 62.2818 62.166 63.0225C61.848 63.3575 61.6006 63.622 61.4239 63.816C61.2649 64.01 61.1412 64.1599 61.0529 64.2657C60.9822 64.3538 60.9292 64.4156 60.8939 64.4508C60.8762 64.4685 60.8586 64.4773 60.8409 64.4773C60.7525 64.4773 60.7084 64.4244 60.7084 64.3186C60.7084 64.3009 60.7437 64.248 60.8144 64.1599C60.8851 64.0541 60.9734 63.9483 61.0794 63.8425C61.1854 63.719 61.2914 63.5956 61.3974 63.4721C61.5211 63.3311 61.6271 63.2076 61.7155 63.1018C62.3515 62.3612 62.9434 61.7705 63.4911 61.3296C64.0388 60.8888 64.5688 60.6683 65.0812 60.6683C65.4345 60.6683 65.6819 60.7829 65.8232 61.0122C65.9822 61.2414 66.0617 61.5588 66.0617 61.9644C66.0617 62.2289 65.9999 62.5199 65.8762 62.8373C65.7525 63.1371 65.6024 63.4369 65.4257 63.7367C65.2667 64.0364 65.09 64.3274 64.8957 64.6095C64.7013 64.8741 64.5335 65.1033 64.3921 65.2973L64.4451 65.3502C64.7101 65.1033 65.0723 64.7242 65.5317 64.2128C66.0087 63.6838 66.5123 63.1635 67.0423 62.6522C67.5723 62.1231 68.0935 61.6646 68.6059 61.2767C69.1183 60.8711 69.5423 60.6683 69.878 60.6683C70.2137 60.6683 70.4522 60.8094 70.5935 61.0915C70.7525 61.3561 70.8321 61.6294 70.8321 61.9115C70.8321 62.37 70.726 62.7932 70.514 63.1812C70.302 63.5515 70.0812 63.8866 69.8515 64.1863C68.6677 65.791 68.0759 66.7874 68.0759 67.1753C68.0759 67.3164 68.1112 67.4398 68.1819 67.5456C68.2525 67.6514 68.3586 67.7043 68.4999 67.7043C68.8002 67.7043 69.2066 67.5015 69.719 67.0959C70.2313 66.6727 70.7614 66.1702 71.3091 65.5882C71.6448 65.2356 71.901 64.9622 72.0776 64.7682C72.2543 64.5566 72.378 64.4068 72.4487 64.3186C72.537 64.2128 72.59 64.1511 72.6077 64.1334C72.643 64.0982 72.6783 64.0805 72.7137 64.0805C72.7843 64.0805 72.8197 64.1246 72.8197 64.2128C72.8197 64.248 72.749 64.3539 72.6077 64.5302C72.4663 64.7065 72.2985 64.9005 72.1041 65.1121C71.9275 65.3237 71.7419 65.5265 71.5476 65.7205C71.3709 65.9145 71.2384 66.0555 71.1501 66.1437C70.567 66.7256 70.0458 67.1841 69.5865 67.5192C69.1271 67.8542 68.7472 68.0217 68.4469 68.0217C68.0405 68.0217 67.7402 67.863 67.5458 67.5456C67.3692 67.2106 67.2808 66.805 67.2808 66.3289C67.2808 65.7998 67.431 65.2796 67.7313 64.7682C68.0317 64.2392 68.3586 63.7543 68.7119 63.3134C69.0653 62.855 69.3921 62.4494 69.6925 62.0967C69.9928 61.744 70.143 61.4795 70.143 61.3032C70.143 61.0915 70.0193 60.9857 69.772 60.9857C69.56 60.9857 69.2596 61.1268 68.8709 61.409C68.4822 61.6911 68.0582 62.0526 67.5988 62.4935C67.1395 62.9343 66.6624 63.4281 66.1677 63.9747C65.673 64.5037 65.2048 65.0239 64.7631 65.5353C64.3215 66.0467 63.9328 66.514 63.5971 66.9372C63.2614 67.3428 63.0317 67.6514 62.908 67.863L61.1324 68.0217Z" fill="#FCFCFC"/>
<path d="M101.221 52.2569C100.956 52.3803 100.655 52.5214 100.32 52.6801C99.9841 52.8388 99.6396 52.9887 99.2862 53.1297C98.9505 53.2708 98.606 53.3943 98.2527 53.5001C97.917 53.5882 97.599 53.6323 97.2986 53.6323C96.6979 53.6323 96.2297 53.456 95.894 53.1033C95.5583 52.7506 95.3905 52.1775 95.3905 51.384C95.3905 51.0137 95.4081 50.758 95.4435 50.6169C95.4788 50.4758 95.4965 50.3612 95.4965 50.273C95.4965 50.1496 95.3816 50.0879 95.152 50.0879C94.7809 50.1231 94.2862 50.3348 93.6679 50.7227C93.0495 51.1106 92.2898 51.816 91.3887 52.8388C91.0177 53.2796 90.7173 53.6588 90.4877 53.9762C90.258 54.276 90.0813 54.5317 89.9576 54.7433C89.8339 54.9372 89.7456 55.0783 89.6926 55.1665C89.6396 55.2547 89.5954 55.2987 89.5601 55.2987C89.4541 55.2987 89.4011 55.2547 89.4011 55.1665C89.4011 55.1312 89.4894 54.9637 89.6661 54.6639C89.8428 54.3641 90.0813 54.0115 90.3816 53.6059C90.682 53.1827 91.0354 52.733 91.4417 52.2569C91.8481 51.7631 92.2809 51.3223 92.7403 50.9343C93.2173 50.5287 93.7032 50.1937 94.1979 49.9292C94.7103 49.6647 95.2138 49.5412 95.7085 49.5588C96.1149 49.5588 96.4329 49.6735 96.6626 49.9027C96.9099 50.132 97.0513 50.6081 97.0866 51.3311C97.1043 51.719 97.1308 52.0364 97.1661 52.2833C97.2014 52.5126 97.2456 52.6889 97.2986 52.8123C97.3516 52.9358 97.4223 53.0151 97.5106 53.0504C97.599 53.0857 97.6961 53.1033 97.8021 53.1033C98.1555 53.1033 98.5265 53.0416 98.9152 52.9181C99.3216 52.7947 99.7103 52.6448 100.081 52.4685C100.452 52.2745 100.797 52.0805 101.115 51.8865C101.451 51.6749 101.742 51.4986 101.989 51.3575C102.678 50.9343 103.208 50.5904 103.58 50.3259C103.968 50.0614 104.26 49.8586 104.454 49.7176C104.648 49.5588 104.79 49.453 104.878 49.4001C104.966 49.3296 105.055 49.2943 105.143 49.2943C105.32 49.2943 105.452 49.3384 105.541 49.4266C105.629 49.5148 105.673 49.6206 105.673 49.744C105.673 49.938 105.549 50.0967 105.302 50.2201C105.072 50.3259 104.781 50.4406 104.428 50.564C104.092 50.6874 103.73 50.8285 103.341 50.9872C102.97 51.1459 102.643 51.3575 102.36 51.622C102.007 51.9747 101.627 52.4597 101.221 53.0769C100.832 53.694 100.399 54.417 99.9223 55.2458C99.4452 56.0746 98.924 57.0004 98.3587 58.0232C97.811 59.0284 97.1926 60.0952 96.5035 61.2238C95.0725 63.6044 93.3498 65.359 91.3357 66.4876C89.3392 67.6162 87.2014 68.1805 84.9223 68.1805C83.8446 68.1805 82.8816 68.0482 82.0336 67.7837C81.2032 67.5192 80.4965 67.1577 79.9135 66.6992C79.3481 66.2231 78.9152 65.6676 78.6149 65.0328C78.3145 64.3979 78.1643 63.719 78.1643 62.996C78.1643 62.132 78.3587 61.312 78.7474 60.5361C79.1361 59.7602 79.6484 59.0901 80.2845 58.5258C80.9382 57.9439 81.6891 57.4854 82.5371 57.1503C83.3852 56.8153 84.2686 56.6478 85.1873 56.6478C85.788 56.6478 86.3799 56.7359 86.9629 56.9123C87.5636 57.071 88.0937 57.3178 88.553 57.6529C89.0301 57.9879 89.4099 58.4112 89.6926 58.9226C89.993 59.4163 90.1431 59.9982 90.1431 60.6683C90.1431 61.3208 89.9753 61.9292 89.6396 62.4935C89.3039 63.0401 88.871 63.5162 88.341 63.9218C87.811 64.3098 87.2103 64.6184 86.5389 64.8476C85.8852 65.0592 85.2315 65.165 84.5778 65.165C84.2244 65.165 83.8799 65.1386 83.5442 65.0857C83.2085 65.0151 82.9081 64.9358 82.6431 64.8476C82.3781 64.7594 82.1573 64.6713 81.9806 64.5831C81.8216 64.4949 81.7421 64.4244 81.7421 64.3715C81.7421 64.2657 81.7951 64.2128 81.9011 64.2128C81.9188 64.2128 81.9894 64.248 82.1131 64.3186C82.2544 64.3891 82.4311 64.4685 82.6431 64.5566C82.8728 64.6272 83.1378 64.6977 83.4382 64.7682C83.7562 64.8212 84.1096 64.8476 84.4983 64.8476C85.099 64.8476 85.7085 64.7506 86.3269 64.5566C86.9629 64.345 87.5283 64.0541 88.023 63.6838C88.5177 63.3134 88.924 62.8638 89.2421 62.3347C89.5601 61.8057 89.7191 61.2238 89.7191 60.589C89.7191 60.2187 89.6308 59.866 89.4541 59.5309C89.2774 59.1782 89.0036 58.8608 88.6325 58.5787C88.2792 58.2965 87.8375 58.0761 87.3074 57.9174C86.7774 57.7411 86.159 57.6529 85.4523 57.6529C84.6219 57.6529 83.8092 57.7852 83.0142 58.0497C82.2368 58.3142 81.5389 58.7021 80.9205 59.2135C80.3021 59.7073 79.7986 60.3068 79.4099 61.0122C79.0389 61.7176 78.8534 62.5023 78.8534 63.3663C78.8534 64.1422 79.0212 64.8123 79.3569 65.3766C79.7103 65.9409 80.1608 66.4082 80.7085 66.7785C81.2739 67.1489 81.9188 67.4222 82.6431 67.5985C83.3675 67.7749 84.1096 67.863 84.8693 67.863C85.841 67.863 86.7862 67.7484 87.705 67.5192C88.6237 67.2723 89.5159 66.8579 90.3816 66.276C91.2474 65.694 92.0866 64.9181 92.8993 63.9483C93.7297 62.9608 94.5424 61.7352 95.3375 60.2716C95.7792 59.4604 96.2032 58.7286 96.6096 58.0761C97.0159 57.4237 97.4488 56.7888 97.9081 56.1716C98.3675 55.5544 98.8622 54.9372 99.3922 54.3201C99.9399 53.7029 100.567 53.0328 101.274 52.3098L101.221 52.2569ZM100.108 59.0813C100.956 59.3987 101.601 59.8748 102.042 60.5096C102.484 61.1444 102.705 61.8498 102.705 62.6257C102.705 62.8197 102.678 63.0666 102.625 63.3663C102.572 63.6661 102.519 63.9924 102.466 64.345C102.413 64.6977 102.36 65.0592 102.307 65.4295C102.254 65.7998 102.228 66.1613 102.228 66.514C102.228 66.8667 102.281 67.1577 102.387 67.3869C102.511 67.5985 102.705 67.7043 102.97 67.7043C103.164 67.7043 103.482 67.5809 103.924 67.334C104.383 67.0695 104.931 66.6022 105.567 65.9321C106.221 65.262 106.671 64.7682 106.919 64.4508C107.184 64.1158 107.343 63.9483 107.396 63.9483C107.484 63.9483 107.528 64.0012 107.528 64.107C107.528 64.1422 107.413 64.2921 107.184 64.5566C106.972 64.8212 106.601 65.2444 106.071 65.8263C104.763 67.2899 103.659 68.0217 102.758 68.0217C102.511 68.0217 102.254 67.9512 101.989 67.8101C101.724 67.6514 101.486 67.4398 101.274 67.1753C101.062 66.9108 100.885 66.5934 100.744 66.2231C100.602 65.8351 100.532 65.4119 100.532 64.9534C100.532 64.6007 100.558 64.2304 100.611 63.8425C100.664 63.4369 100.717 63.0577 100.77 62.7051C100.823 62.3347 100.876 62.0085 100.929 61.7264C100.982 61.4266 101.009 61.2062 101.009 61.0651C101.009 60.7653 100.956 60.5096 100.85 60.298C100.761 60.0864 100.638 59.9101 100.479 59.769C100.337 59.6279 100.187 59.5221 100.028 59.4516C99.8869 59.381 99.7633 59.3458 99.6573 59.3458C99.5689 59.3458 99.4629 59.3722 99.3392 59.4251C99.2156 59.478 99.1096 59.5045 99.0212 59.5045C98.9152 59.5045 98.8092 59.4692 98.7032 59.3987C98.6149 59.3105 98.5707 59.24 98.5707 59.1871C98.5707 59.0107 98.712 58.9226 98.9947 58.9226C99.5424 58.9226 100.081 58.7991 100.611 58.5522C101.159 58.2877 101.671 57.9615 102.148 57.5735C102.625 57.168 103.067 56.7447 103.474 56.3039C103.898 55.8454 104.269 55.4134 104.587 55.0078C105.205 54.2495 105.85 53.5442 106.521 52.8917C107.21 52.2216 107.899 51.6397 108.588 51.1459C109.295 50.6522 109.993 50.2642 110.682 49.9821C111.389 49.6999 112.078 49.5588 112.749 49.5588C113.527 49.5588 114.136 49.7352 114.578 50.0879C115.037 50.4406 115.267 50.899 115.267 51.4633C115.267 51.7455 115.17 51.9747 114.975 52.1511C114.799 52.3274 114.56 52.4156 114.26 52.4156C114.012 52.4156 113.774 52.3539 113.544 52.2304C113.314 52.0893 113.2 51.8777 113.2 51.5956C113.2 51.3487 113.261 51.1547 113.385 51.0137C113.509 50.8726 113.571 50.7051 113.571 50.5111C113.571 50.3171 113.456 50.1672 113.226 50.0614C113.014 49.938 112.731 49.8763 112.378 49.8763C112.06 49.8763 111.716 49.9644 111.345 50.1408C110.974 50.2995 110.585 50.5375 110.178 50.855C109.79 51.1547 109.383 51.5251 108.959 51.9659C108.535 52.3891 108.129 52.8564 107.74 53.3678C106.698 54.7256 105.585 55.8895 104.401 56.8594C103.217 57.8116 101.786 58.5346 100.108 59.0284V59.0813Z" fill="#FCFCFC"/>
<path d="M108.65 68.0217C108.244 68.0217 107.926 67.8983 107.696 67.6514C107.484 67.3869 107.378 67.0519 107.378 66.6463C107.378 66.2054 107.466 65.7646 107.643 65.3237C107.82 64.8829 108.032 64.4508 108.279 64.0276C108.544 63.6044 108.818 63.1988 109.101 62.8109C109.401 62.4229 109.666 62.0614 109.896 61.7264L109.843 61.6735C109.684 61.8322 109.427 62.0967 109.074 62.467C108.721 62.8373 108.226 63.384 107.59 64.107C107.449 64.2657 107.36 64.3627 107.325 64.3979C107.29 64.4332 107.254 64.4508 107.219 64.4508C107.148 64.4508 107.113 64.3979 107.113 64.2921C107.113 64.2569 107.157 64.1951 107.245 64.107C107.334 64.0012 107.555 63.7455 107.908 63.3399C108.085 63.1459 108.279 62.9343 108.491 62.7051C108.721 62.4582 108.942 62.2201 109.154 61.9909C109.366 61.744 109.56 61.5148 109.737 61.3032C109.931 61.0915 110.081 60.9152 110.187 60.7741L111.857 60.6683C111.062 61.9732 110.417 63.0225 109.922 63.816C109.445 64.5919 109.074 65.2091 108.809 65.6676C108.562 66.1084 108.394 66.4347 108.306 66.6463C108.217 66.8403 108.173 67.0078 108.173 67.1489C108.173 67.3781 108.226 67.528 108.332 67.5985C108.438 67.6691 108.553 67.7043 108.677 67.7043C108.889 67.7043 109.118 67.6426 109.366 67.5192C109.613 67.3957 109.869 67.2458 110.134 67.0695C110.399 66.8755 110.655 66.6639 110.903 66.4347C111.168 66.2054 111.406 65.9762 111.618 65.7469C111.795 65.5706 111.972 65.3854 112.148 65.1915C112.343 64.9799 112.51 64.7859 112.652 64.6095C112.811 64.4332 112.943 64.2921 113.049 64.1863C113.155 64.0629 113.217 64.0012 113.235 64.0012C113.341 64.0012 113.394 64.0452 113.394 64.1334C113.394 64.1687 113.261 64.345 112.996 64.6624C112.749 64.9622 112.343 65.4031 111.777 65.985C110.47 67.3428 109.427 68.0217 108.65 68.0217ZM112.784 56.489C112.784 56.2598 112.864 56.0394 113.023 55.8278C113.182 55.5985 113.412 55.4839 113.712 55.4839C113.906 55.4839 114.056 55.5544 114.162 55.6955C114.268 55.819 114.321 55.9777 114.321 56.1716C114.321 56.4009 114.242 56.6301 114.083 56.8594C113.924 57.071 113.694 57.1768 113.394 57.1768C113.2 57.1768 113.049 57.1151 112.943 56.9916C112.837 56.8505 112.784 56.683 112.784 56.489Z" fill="#FCFCFC"/>
<path d="M119.295 55.7484L120.938 55.6426L119.216 58.2877H122.316C122.405 58.2877 122.449 58.3406 122.449 58.4464C122.449 58.5522 122.405 58.6051 122.316 58.6051H119.03C118.889 58.852 118.668 59.2135 118.368 59.6896C118.067 60.1481 117.732 60.6683 117.361 61.2503C116.99 61.8145 116.601 62.4141 116.195 63.0489C115.806 63.6838 115.444 64.2833 115.108 64.8476C114.79 65.3943 114.525 65.8968 114.313 66.3553C114.101 66.7962 113.995 67.1136 113.995 67.3076C113.995 67.5721 114.163 67.7043 114.498 67.7043C114.905 67.7043 115.338 67.5456 115.797 67.2282C116.274 66.8932 116.813 66.4258 117.414 65.8263C117.749 65.4912 118.014 65.2179 118.209 65.0063C118.421 64.7771 118.58 64.6007 118.686 64.4773C118.809 64.3362 118.889 64.2392 118.924 64.1863C118.977 64.1158 119.021 64.0805 119.057 64.0805C119.145 64.0805 119.189 64.1334 119.189 64.2392C119.189 64.2569 119.136 64.3274 119.03 64.4508C118.942 64.5743 118.827 64.7154 118.686 64.8741C118.544 65.0328 118.385 65.2003 118.209 65.3766C118.05 65.553 117.9 65.7117 117.758 65.8528C116.945 66.6639 116.283 67.2282 115.771 67.5456C115.258 67.863 114.816 68.0217 114.445 68.0217C113.986 68.0041 113.659 67.863 113.465 67.5985C113.288 67.3164 113.2 67.0254 113.2 66.7256C113.2 66.3553 113.253 65.9938 113.359 65.6411C113.465 65.2708 113.624 64.8917 113.836 64.5037C114.048 64.0982 114.304 63.6749 114.604 63.2341C114.922 62.7756 115.276 62.2642 115.665 61.6999L115.612 61.647C115.364 61.9468 115.117 62.2289 114.869 62.4935C114.64 62.758 114.348 63.093 113.995 63.4986C113.942 63.5691 113.854 63.6661 113.73 63.7896C113.624 63.913 113.518 64.0364 113.412 64.1599C113.306 64.2833 113.209 64.3979 113.12 64.5037C113.032 64.5919 112.979 64.636 112.961 64.636C112.873 64.636 112.829 64.6007 112.829 64.5302C112.829 64.5126 112.838 64.4861 112.855 64.4508C112.873 64.3979 112.917 64.3274 112.988 64.2392C113.076 64.1511 113.191 64.0276 113.332 63.8689C113.491 63.6926 113.703 63.4545 113.968 63.1547C114.163 62.9431 114.401 62.6698 114.684 62.3347C114.984 61.9997 115.293 61.6294 115.612 61.2238C115.947 60.8182 116.283 60.395 116.619 59.9541C116.972 59.4957 117.299 59.046 117.599 58.6051H116.645C116.557 58.6051 116.513 58.5522 116.513 58.4464C116.513 58.3406 116.548 58.2877 116.619 58.2877H117.732L119.295 55.7484Z" fill="#FCFCFC"/>
<path d="M125.992 61.9644C125.992 62.2113 125.903 62.467 125.727 62.7315C125.55 62.9784 125.312 63.1018 125.011 63.1018C124.764 63.1018 124.587 63.0401 124.481 62.9167C124.393 62.7756 124.349 62.6169 124.349 62.4406C124.349 62.2642 124.384 62.1408 124.455 62.0702C124.543 61.9997 124.64 61.9468 124.746 61.9115C124.852 61.8586 124.94 61.8057 125.011 61.7528C125.099 61.6823 125.144 61.5765 125.144 61.4354C125.144 61.3296 125.091 61.2326 124.985 61.1444C124.896 61.0386 124.746 60.9857 124.534 60.9857C124.128 60.9857 123.677 61.1444 123.183 61.4619C122.705 61.7616 122.255 62.176 121.831 62.7051C121.407 63.2164 121.045 63.816 120.744 64.5037C120.462 65.1915 120.32 65.9145 120.32 66.6727C120.32 67.3605 120.691 67.7043 121.433 67.7043C121.893 67.7043 122.423 67.5456 123.024 67.2282C123.642 66.8932 124.243 66.417 124.826 65.7998C125.179 65.4295 125.453 65.1298 125.647 64.9005C125.859 64.6713 126.009 64.5037 126.098 64.3979C126.204 64.2745 126.274 64.1951 126.31 64.1599C126.345 64.107 126.372 64.0805 126.389 64.0805C126.495 64.0805 126.548 64.1334 126.548 64.2392C126.548 64.2745 126.442 64.4156 126.23 64.6624C126.036 64.8917 125.797 65.1562 125.515 65.456C124.667 66.373 123.907 67.0342 123.236 67.4398C122.582 67.8278 121.919 68.0217 121.248 68.0217C120.842 68.0217 120.497 67.9336 120.214 67.7572C119.949 67.5633 119.737 67.3252 119.578 67.043C119.419 66.7609 119.304 66.4523 119.234 66.1173C119.181 65.7646 119.154 65.4295 119.154 65.1121C119.154 64.9005 119.163 64.7418 119.181 64.636C119.216 64.5126 119.234 64.4332 119.234 64.3979C119.234 64.3627 119.216 64.345 119.181 64.345C119.145 64.345 119.11 64.3627 119.075 64.3979C119.057 64.4332 119.031 64.4508 118.995 64.4508C118.907 64.4508 118.863 64.4068 118.863 64.3186C118.863 64.3009 118.872 64.2833 118.889 64.2657C118.907 64.2304 118.942 64.1775 118.995 64.107C119.048 64.0188 119.137 63.9042 119.26 63.7631C119.384 63.622 119.552 63.4281 119.764 63.1812C120.524 62.2818 121.274 61.6382 122.016 61.2503C122.776 60.8623 123.527 60.6683 124.269 60.6683C124.781 60.6683 125.197 60.7829 125.515 61.0122C125.833 61.2238 125.992 61.5412 125.992 61.9644Z" fill="#FCFCFC"/>
<path d="M125.205 68.0217C126.654 65.4824 128.129 63.0842 129.631 60.827L129.604 60.7741C129.233 61.1797 128.915 61.5588 128.65 61.9115C128.385 62.2466 128.014 62.6698 127.537 63.1812C127.255 63.4986 127.034 63.7455 126.875 63.9218C126.716 64.0982 126.592 64.2304 126.504 64.3186C126.433 64.4068 126.38 64.4685 126.345 64.5037C126.327 64.5214 126.309 64.5302 126.292 64.5302C126.221 64.5302 126.186 64.4773 126.186 64.3715C126.186 64.3009 126.362 64.0805 126.716 63.7102C127.069 63.3399 127.511 62.8461 128.041 62.2289C128.589 61.5941 129.18 60.8535 129.816 60.007C130.47 59.143 131.089 58.2084 131.672 57.2032L134.534 52.2833L136.15 52.0982C135.974 52.3979 135.709 52.8564 135.355 53.4736C135.002 54.0732 134.587 54.7697 134.11 55.5633C133.633 56.3392 133.12 57.1768 132.573 58.0761C132.043 58.9578 131.521 59.8395 131.009 60.7212C130.497 61.5853 130.011 62.4141 129.551 63.2076C129.092 63.9835 128.703 64.6448 128.385 65.1915L128.438 65.2444C129.71 63.7807 130.815 62.6522 131.751 61.8586C132.687 61.0651 133.385 60.6683 133.845 60.6683C134.233 60.6683 134.507 60.8094 134.666 61.0915C134.825 61.3737 134.905 61.6911 134.905 62.0438C134.905 62.4141 134.755 62.8461 134.454 63.3399C134.154 63.816 133.818 64.3009 133.447 64.7947C133.076 65.2885 132.74 65.7646 132.44 66.2231C132.14 66.6815 131.99 67.0519 131.99 67.334C131.99 67.4222 132.016 67.5104 132.069 67.5985C132.14 67.6691 132.246 67.7043 132.387 67.7043C132.793 67.7043 133.226 67.5192 133.686 67.1489C134.145 66.7785 134.746 66.2054 135.488 65.4295C135.647 65.2708 135.797 65.1121 135.938 64.9534C136.08 64.7771 136.212 64.6184 136.336 64.4773C136.46 64.3362 136.566 64.2216 136.654 64.1334C136.742 64.0276 136.804 63.9747 136.839 63.9747C136.928 63.9747 136.972 64.0188 136.972 64.107C136.972 64.1422 136.839 64.3186 136.574 64.636C136.309 64.9534 136 65.2973 135.647 65.6676C135.17 66.179 134.755 66.5934 134.401 66.9108C134.048 67.2106 133.739 67.4486 133.474 67.625C133.209 67.7837 132.979 67.8895 132.785 67.9424C132.59 67.9953 132.414 68.0217 132.255 68.0217C131.99 68.0217 131.742 67.9248 131.513 67.7308C131.301 67.5368 131.195 67.1488 131.195 66.5669C131.195 65.985 131.345 65.4383 131.645 64.927C131.945 64.3979 132.281 63.913 132.652 63.4721C133.023 63.0313 133.359 62.6345 133.659 62.2818C133.96 61.9115 134.11 61.5941 134.11 61.3296C134.11 61.2414 134.074 61.1621 134.004 61.0915C133.951 61.021 133.889 60.9857 133.818 60.9857C133.589 60.9857 133.271 61.1268 132.864 61.409C132.458 61.6735 132.016 62.0173 131.539 62.4406C131.08 62.8638 130.594 63.3399 130.081 63.8689C129.587 64.3979 129.119 64.9181 128.677 65.4295C128.235 65.9409 127.846 66.417 127.511 66.8579C127.193 67.2811 126.972 67.6162 126.848 67.863L125.205 68.0217Z" fill="#FCFCFC"/>
<path d="M143.43 61.938C143.43 62.4317 143.218 62.8814 142.794 63.287C142.37 63.6749 141.866 64.0188 141.283 64.3186C140.7 64.6007 140.099 64.8388 139.481 65.0328C138.863 65.2267 138.359 65.359 137.97 65.4295C137.935 65.5706 137.908 65.7205 137.891 65.8792C137.873 66.0203 137.864 66.1613 137.864 66.3024C137.864 66.8138 137.944 67.1753 138.103 67.3869C138.279 67.5809 138.571 67.6867 138.977 67.7043C139.331 67.722 139.834 67.5809 140.488 67.2811C141.142 66.9637 141.875 66.4082 142.688 65.6147C143.2 65.0857 143.544 64.6977 143.721 64.4508C143.916 64.204 144.039 64.0805 144.092 64.0805C144.181 64.0805 144.225 64.1334 144.225 64.2392C144.225 64.2745 144.163 64.3627 144.039 64.5037C143.933 64.6448 143.792 64.8212 143.615 65.0328C143.438 65.2267 143.235 65.4383 143.006 65.6676C142.794 65.8968 142.59 66.0996 142.396 66.276C141.725 66.8932 141.106 67.334 140.541 67.5985C139.993 67.863 139.41 68.0041 138.792 68.0217C138.421 68.0217 138.103 67.9424 137.838 67.7837C137.59 67.625 137.378 67.4134 137.202 67.1489C137.025 66.8843 136.893 66.5846 136.804 66.2495C136.734 65.9145 136.698 65.5706 136.698 65.2179C136.698 65.0239 136.707 64.8564 136.725 64.7153C136.76 64.5743 136.778 64.4861 136.778 64.4508C136.778 64.4332 136.769 64.4156 136.751 64.3979C136.698 64.4508 136.672 64.4773 136.672 64.4773C136.654 64.4773 136.628 64.4597 136.592 64.4244C136.557 64.3891 136.539 64.3539 136.539 64.3186C136.539 64.3009 136.575 64.2392 136.645 64.1334C136.734 64.0276 136.831 63.913 136.937 63.7896C137.06 63.6661 137.175 63.5515 137.281 63.4457C137.387 63.3223 137.467 63.2341 137.52 63.1812C138.262 62.4406 139.03 61.841 139.825 61.3825C140.62 60.9064 141.38 60.6683 142.105 60.6683C142.511 60.6683 142.829 60.7918 143.059 61.0386C143.306 61.2679 143.43 61.5677 143.43 61.938ZM142.105 60.9857C141.751 60.9857 141.363 61.1356 140.938 61.4354C140.514 61.7176 140.099 62.0702 139.693 62.4935C139.304 62.9167 138.96 63.3663 138.659 63.8425C138.359 64.3186 138.165 64.7418 138.076 65.1121C138.518 65.0592 139.004 64.9358 139.534 64.7418C140.064 64.5302 140.559 64.2657 141.018 63.9483C141.477 63.6132 141.857 63.2429 142.158 62.8373C142.476 62.4141 142.635 61.9644 142.635 61.4883C142.635 61.1533 142.458 60.9857 142.105 60.9857Z" fill="#FCFCFC"/>
<path d="M144.313 68.0217C144.401 67.863 144.56 67.6073 144.79 67.2547C145.037 66.902 145.32 66.5052 145.638 66.0644C145.956 65.6059 146.283 65.1298 146.618 64.636C146.972 64.1422 147.29 63.6838 147.572 63.2605C147.855 62.8197 148.085 62.4317 148.261 62.0967C148.456 61.7616 148.553 61.5236 148.553 61.3825C148.553 61.2414 148.509 61.1444 148.42 61.0915C148.35 61.021 148.261 60.9857 148.155 60.9857C147.784 60.9857 147.387 61.1444 146.963 61.4619C146.557 61.7616 146.018 62.2818 145.346 63.0225C145.028 63.3575 144.781 63.622 144.604 63.816C144.445 64.01 144.322 64.1599 144.233 64.2657C144.163 64.3538 144.11 64.4156 144.074 64.4508C144.057 64.4685 144.039 64.4773 144.021 64.4773C143.933 64.4773 143.889 64.4244 143.889 64.3186C143.889 64.3009 143.924 64.248 143.995 64.1599C144.065 64.0541 144.154 63.9483 144.26 63.8425C144.366 63.719 144.472 63.5956 144.578 63.4721C144.701 63.3311 144.807 63.2076 144.896 63.1018C145.532 62.3612 146.124 61.7705 146.671 61.3296C147.219 60.8888 147.749 60.6683 148.261 60.6683C148.615 60.6683 148.862 60.7829 149.004 61.0122C149.163 61.2414 149.242 61.5588 149.242 61.9644C149.242 62.2289 149.18 62.5199 149.057 62.8373C148.933 63.1371 148.783 63.4369 148.606 63.7367C148.447 64.0364 148.27 64.3274 148.076 64.6095C147.882 64.8741 147.714 65.1033 147.572 65.2973L147.625 65.3502C147.89 65.1033 148.253 64.7242 148.712 64.2128C149.189 63.6838 149.693 63.1635 150.223 62.6522C150.753 62.1231 151.274 61.6646 151.786 61.2767C152.299 60.8711 152.723 60.6683 153.058 60.6683C153.394 60.6683 153.632 60.8094 153.774 61.0915C153.933 61.3561 154.012 61.6294 154.012 61.9115C154.012 62.37 153.906 62.7932 153.694 63.1812C153.482 63.5515 153.261 63.8866 153.032 64.1863C151.848 65.791 151.256 66.7874 151.256 67.1753C151.256 67.3164 151.292 67.4398 151.362 67.5456C151.433 67.6514 151.539 67.7043 151.68 67.7043C151.981 67.7043 152.387 67.5015 152.899 67.0959C153.412 66.6727 153.942 66.1702 154.489 65.5882C154.825 65.2356 155.081 64.9622 155.258 64.7682C155.435 64.5566 155.558 64.4068 155.629 64.3186C155.717 64.2128 155.77 64.1511 155.788 64.1334C155.823 64.0982 155.859 64.0805 155.894 64.0805C155.965 64.0805 156 64.1246 156 64.2128C156 64.248 155.929 64.3539 155.788 64.5302C155.647 64.7065 155.479 64.9005 155.284 65.1121C155.108 65.3237 154.922 65.5265 154.728 65.7205C154.551 65.9145 154.419 66.0555 154.33 66.1437C153.747 66.7256 153.226 67.1841 152.767 67.5192C152.307 67.8542 151.928 68.0217 151.627 68.0217C151.221 68.0217 150.92 67.863 150.726 67.5456C150.549 67.2106 150.461 66.805 150.461 66.3289C150.461 65.7998 150.611 65.2796 150.912 64.7682C151.212 64.2392 151.539 63.7543 151.892 63.3134C152.246 62.855 152.572 62.4494 152.873 62.0967C153.173 61.744 153.323 61.4795 153.323 61.3032C153.323 61.0915 153.2 60.9857 152.952 60.9857C152.74 60.9857 152.44 61.1268 152.051 61.409C151.663 61.6911 151.238 62.0526 150.779 62.4935C150.32 62.9343 149.843 63.4281 149.348 63.9747C148.853 64.5037 148.385 65.0239 147.943 65.5353C147.502 66.0467 147.113 66.514 146.777 66.9372C146.442 67.3428 146.212 67.6514 146.088 67.863L144.313 68.0217Z" fill="#FCFCFC"/>
<path d="M104.811 86.7703C96.8188 92.8044 87.0463 88.7128 78.516 83.0506C76.2386 81.5627 61.2899 75.4045 59.9234 80.4881C56.3623 93.5484 86.2181 76.9337 89.5309 75.3219C93.2577 73.4207 106.55 68.2958 106.55 76.1898C106.55 84.8278 95.9492 83.5465 90.2348 82.0587C76.3214 78.3803 65.6379 66.1053 49.861 76.5205C64.3542 67.1386 76.3214 79.6202 90.2348 83.2572C95.9078 84.7451 107.254 85.1171 107.047 76.4791C106.84 67.3866 93.2162 73.1314 89.4894 74.9912C86.1353 76.6031 56.942 92.7218 60.5031 80.4881C61.9525 75.4459 75.7831 82.7199 78.0192 84.2905C85.6384 89.4567 96.8188 92.8044 104.811 86.7703Z" fill="#C19A74"/>
</svg>
